<svg xmlns="http://www.w3.org/2000/svg" xmlns:xlink="http://www.w3.org/1999/xlink" width="110" height="109.978" viewBox="0 0 110 109.978">
  <defs>
    <clipPath id="clip-path">
      <rect id="Rectangle_3679" data-name="Rectangle 3679" width="110" height="109.978" fill="none"/>
    </clipPath>
    <clipPath id="clip-path-2">
      <rect id="Rectangle_3676" data-name="Rectangle 3676" width="67.28" height="69.492" transform="translate(0 0)" fill="none"/>
    </clipPath>
  </defs>
  <g id="Group_3462" data-name="Group 3462" transform="translate(21.361 29.919)">
    <g id="Group_3466" data-name="Group 3466" transform="translate(-21.361 -29.919)">
      <g id="Group_3465" data-name="Group 3465" clip-path="url(#clip-path)">
        <path id="Path_13443" data-name="Path 13443" d="M107.957,40.195A54.985,54.985,0,1,1,40.2,2.043a54.973,54.973,0,0,1,67.755,38.152" transform="translate(0 -0.001)" fill="#fcc324"/>
      </g>
    </g>
    <g id="Group_3461" data-name="Group 3461" transform="matrix(0.966, -0.259, 0.259, 0.966, -7.68, 0.42)" clip-path="url(#clip-path-2)">
      <path id="Path_13427" data-name="Path 13427" d="M23.272,42.03c-7.705,0-12.486,1.562-13.062,2.467.576.893,5.356,2.467,13.062,2.467s12.5-1.574,13.062-2.467c-.564-.9-5.356-2.467-13.062-2.467" transform="translate(1.783 7.338)"/>
      <path id="Path_13428" data-name="Path 13428" d="M37.662,27.381A13.209,13.209,0,0,1,26.421,21.05a12.348,12.348,0,0,1-3.019.364,12.871,12.871,0,0,1-3.019-.364A13.183,13.183,0,0,1,9.19,27.381V46.1c2.76-2.138,9.737-2.76,14.26-2.76s11.5.623,14.26,2.76V27.381ZM15.051,40A1.175,1.175,0,1,1,12.7,40V29.836a1.175,1.175,0,1,1,2.349,0Zm5.6-1.562a1.175,1.175,0,1,1-2.349,0V28.274a1.175,1.175,0,1,1,2.349,0Z" transform="translate(1.605 3.675)"/>
      <path id="Path_13429" data-name="Path 13429" d="M13.719,16.687a1.168,1.168,0,0,0,.023,1.175,13.176,13.176,0,0,0,5.967,5.274,10.893,10.893,0,0,1-8.95,4.745c-.223,0-.446-.012-.67-.023a6.925,6.925,0,0,1-.693-.07c-.106-.012-.223-.023-.341-.047a5.05,5.05,0,0,1-.552-.106c-.176-.035-.364-.082-.54-.129s-.364-.106-.54-.164-.352-.117-.529-.188c-.153-.059-.305-.117-.458-.188a6.02,6.02,0,0,1-.623-.294c-.082-.047-.164-.082-.247-.129a5.976,5.976,0,0,1-.587-.352.063.063,0,0,1-.047-.035c-.094-.059-.188-.117-.282-.188a6.026,6.026,0,0,1-.7-.517c-.27-.223-.54-.458-.787-.7-.129-.141-.258-.27-.388-.411a.012.012,0,0,1-.012-.012,11.953,11.953,0,0,1,9.2-19.592,11.533,11.533,0,0,1,2.8.341h.012a10.328,10.328,0,0,1,2.126.728,11.485,11.485,0,0,0-1.762,4.088,1.171,1.171,0,0,0,.951,1.351,1.294,1.294,0,0,0,.211.023,1.179,1.179,0,0,0,1.151-.963,8.936,8.936,0,0,1,1.492-3.312A11.956,11.956,0,0,1,22.811,21.68a10.824,10.824,0,0,1-7.036-4.992c-.012-.012-.012-.023-.023-.035a1.175,1.175,0,0,0-1.515-.446.352.352,0,0,0-.094.047,1.154,1.154,0,0,0-.423.435" transform="translate(0 0.826)"/>
      <path id="Path_13430" data-name="Path 13430" d="M18.943,20.07c0,.012-.012.012-.012.023a.041.041,0,0,0-.012-.023.016.016,0,0,0,.023,0" transform="translate(3.303 3.504)"/>
      <path id="Path_13431" data-name="Path 13431" d="M46.225,16.466A11.955,11.955,0,0,1,41.5,25.992a.706.706,0,0,1-.153.106,10.759,10.759,0,0,1-14.917-2.937,13.076,13.076,0,0,0,6.049-5.427,1.181,1.181,0,0,0-.423-1.609.012.012,0,0,1-.012-.012,1.187,1.187,0,0,0-1.6.446c-.035.059-.07.117-.106.164A10.8,10.8,0,0,1,23.5,21.681a11.887,11.887,0,0,1-1.186-4.957v-.258A11.948,11.948,0,0,1,31.331,4.884a12.114,12.114,0,0,1,2.937-.364A11.951,11.951,0,0,1,46.225,16.466" transform="translate(3.895 0.789)"/>
      <path id="Path_13432" data-name="Path 13432" d="M25.955,20.4a.028.028,0,0,0-.026.012.091.091,0,0,1,.009-.048c.008.013.008.025.016.036" transform="translate(4.527 3.555)"/>
      <path id="Path_13433" data-name="Path 13433" d="M32.79,5.768C31.268,2.3,28.539,0,25.426,0c-3.18,0-5.951,2.413-7.447,6H17.97a16.067,16.067,0,0,0-1.19,6.163,16.174,16.174,0,0,0,.816,5.16c.4-.262.876-.072,1.1.455.008.012.008.023.016.035A8.517,8.517,0,0,0,23.8,22.886a5.551,5.551,0,0,0,1.589.24,5.683,5.683,0,0,0,1.727-.275,8.582,8.582,0,0,0,4.957-5.041c.026-.047.051-.107.076-.167.238-.573.748-.765,1.156-.455a16.44,16.44,0,0,0,.774-5.028A15.989,15.989,0,0,0,32.79,5.768M19.917,11.311c-.076.573-.433.98-.833.98a.7.7,0,0,1-.154-.023,1.219,1.219,0,0,1-.688-1.374,14.7,14.7,0,0,1,1.276-4.157,7.473,7.473,0,0,1,3.936-3.906c.451-.168.919.215,1.037.848a1.3,1.3,0,0,1-.6,1.457A5.6,5.6,0,0,0,21,7.943a11.309,11.309,0,0,0-1.079,3.369" transform="translate(2.93 0)"/>
      <path id="Path_13434" data-name="Path 13434" d="M48.715,49.68A5.028,5.028,0,0,0,45.2,46.168c-2.643-.787-6.073.247-8.68,2.854-3.442,3.442-4.135,8.316-1.562,10.9s7.47,1.879,10.9-1.562c2.608-2.608,3.641-6.049,2.854-8.68m-9.056,2.561c-2.537,1.68-1.832,4.839-1.809,4.969a1.176,1.176,0,0,1-.869,1.421,1.052,1.052,0,0,1-.27.023,1.166,1.166,0,0,1-1.139-.893c-.047-.2-1.128-4.875,2.784-7.482a1.178,1.178,0,1,1,1.3,1.962" transform="translate(5.833 8.016)"/>
      <path id="Path_13435" data-name="Path 13435" d="M58.979,36.019h0a2.483,2.483,0,0,1,0,3.511L46.89,51.619l-3.511-3.511L55.468,36.019a2.483,2.483,0,0,1,3.511,0" transform="translate(7.574 6.162)"/>
    </g>
  </g>
</svg>
