<svg xmlns="http://www.w3.org/2000/svg" width="34.377" height="24.278" viewBox="0 0 34.377 24.278">
  <g id="Group_4020" data-name="Group 4020" transform="translate(-1.29 -2.146)">
    <path id="Path_13876" data-name="Path 13876" d="M35.712,3.97a2.04,2.04,0,0,0-1.543-.706H10.723a2.036,2.036,0,0,0-.453.053l-.23-1.572A2.049,2.049,0,0,0,8.024,0H2.766a.934.934,0,0,0,0,1.867H8.024a.173.173,0,0,1,.169.148L8.7,5.485c0,.038,0,.077,0,.114L10.291,16.43a2.051,2.051,0,0,0,2.018,1.744H32.583A2.051,2.051,0,0,0,34.6,16.43L36.187,5.6a2.04,2.04,0,0,0-.475-1.628M32.754,16.16a.174.174,0,0,1-.171.147H12.309a.173.173,0,0,1-.17-.147l-.087-.59c0-.021.007-.042,0-.063L10.561,5.3a.2.2,0,0,1,.033-.109.166.166,0,0,1,.13-.06H34.17a.166.166,0,0,1,.13.06.165.165,0,0,1,.04.137Z" transform="translate(-0.542 2.146)" fill="#121212"/>
    <path id="Path_13877" data-name="Path 13877" d="M16.344,20.338a2.643,2.643,0,1,0,2.643,2.643,2.643,2.643,0,0,0-2.643-2.643" transform="translate(-1.329 0.799)" fill="#121212"/>
    <path id="Path_13878" data-name="Path 13878" d="M31.1,20.338a2.643,2.643,0,1,0,2.643,2.643A2.643,2.643,0,0,0,31.1,20.338" transform="translate(-2.306 0.799)" fill="#121212"/>
  </g>
</svg>
