<svg xmlns="http://www.w3.org/2000/svg" xmlns:xlink="http://www.w3.org/1999/xlink" width="50" height="50" viewBox="0 0 50 50">
  <defs>
    <clipPath id="clip-path">
      <rect id="Rectangle_3672" data-name="Rectangle 3672" width="50" height="50" transform="translate(-8 0)" fill="none"/>
    </clipPath>
  </defs>
  <g id="Group_3452" data-name="Group 3452" transform="translate(8 0)" clip-path="url(#clip-path)">
    <path id="Path_13423" data-name="Path 13423" d="M33,24.912c-4.01-12.131-2.94-20.072-2.04-23.772a.929.929,0,0,0-1.47-.95c-9.171,6.821-4.28,15.431-5.73,24.872-1.56,10.091-14.731,10.991-8.691,3.06,4.03-5.3,3.85-12.541,3.29-16.771a.714.714,0,0,0-1.36-.19c-1.41,3.39-4.06,5.13-7.071,6.51-18.6,8.521-8.851,36.913,10.931,31.692.37-.1.74-.2,1.12-.32C28.313,47.124,37.564,38.713,33,24.912M8.712,23.482c-3.11,1.19-4.12,5.1-4.13,5.14a1.012,1.012,0,0,1-.97.76,1.134,1.134,0,0,1-.25-.03,1,1,0,0,1-.72-1.22c.05-.2,1.29-4.96,5.35-6.52a1,1,0,0,1,.72,1.87" transform="translate(0 0)"/>
  </g>
</svg>
