<svg xmlns="http://www.w3.org/2000/svg" width="20.001" height="20.001" viewBox="0 0 20.001 20.001">
  <g id="Union_2" data-name="Union 2" transform="translate(0 8.666) rotate(-45)" fill="none">
    <path d="M5.657,15.557V12.24a6.129,6.129,0,1,1,.942,0v3.317a.471.471,0,1,1-.942,0Z" stroke="none"/>
    <path d="M 6.127457618713379 11.27309322357178 L 6.522929668426514 11.24300098419189 C 7.80757999420166 11.14525032043457 9.000619888305664 10.56983089447021 9.882269859313965 9.62273120880127 C 10.76826000213623 8.670980453491211 11.25619983673096 7.430210590362549 11.25619983673096 6.129000663757324 C 11.25619983673096 3.301360845565796 8.955339431762695 1.000900745391846 6.127199649810791 1.000900745391846 C 3.299559831619263 1.000900745391846 0.9990997910499573 3.301360845565796 0.9990997910499573 6.129000663757324 C 0.9990997910499573 7.43026065826416 1.487099766731262 8.671100616455078 2.373199701309204 9.622941017150879 C 3.254909753799438 10.57006072998047 4.447849750518799 11.14543056488037 5.732289791107178 11.24306106567383 L 6.127457618713379 11.27309322357178 M 6.127199649810791 16.02900123596191 C 5.867099761962891 16.02900123596191 5.656499862670898 15.81750106811523 5.656499862670898 15.55740070343018 L 5.656499862670898 12.24018096923828 C 2.492419719696045 11.999680519104 -0.0009002159349620342 9.355441093444824 -0.0009002159349620342 6.129000663757324 C -0.0009002159349620342 2.74410080909729 2.743199825286865 0.0009007522603496909 6.127199649810791 0.0009007522603496909 C 9.512100219726562 0.0009007522603496909 12.25619983673096 2.74410080909729 12.25619983673096 6.129000663757324 C 12.25619983673096 9.355230331420898 9.763369560241699 11.99933052062988 6.598799705505371 12.24012088775635 L 6.598799705505371 15.55740070343018 C 6.598799705505371 15.81750106811523 6.388199806213379 16.02900123596191 6.127199649810791 16.02900123596191 Z" stroke="none" fill="#000"/>
  </g>
</svg>
