<svg id="Group_1030" data-name="Group 1030" xmlns="http://www.w3.org/2000/svg" width="30" height="20" viewBox="0 0 23.577 13.389">
  <path id="Path_556" data-name="Path 556" d="M47.032,208.74h3.2v1.426h1.356V208.74H67.4a1.607,1.607,0,0,1,1.6,1.6v10.184a1.607,1.607,0,0,1-1.6,1.6H51.585V220.7H50.229v1.426h-3.2a1.607,1.607,0,0,1-1.6-1.6V210.343a1.607,1.607,0,0,1,1.6-1.6Zm8.941,8.09,1.562-.155a1.6,1.6,0,0,0,1.726,1.517c.674,0,1.552-.274,1.552-1.091,0-.851-1.371-1.008-2.014-1.168-1.265-.317-2.527-.873-2.527-2.389a2.243,2.243,0,0,1,2.108-2.161v-1h1.631v1.009a2.359,2.359,0,0,1,2.175,2.362l-1.606.055c-.143-.856-.6-1.152-1.443-1.152-.489,0-1.336.146-1.336.783,0,.685,1.209.9,1.706,1.015,1.54.362,2.912.819,2.912,2.639a2.452,2.452,0,0,1-2.407,2.406v.991H58.38v-1.011a2.734,2.734,0,0,1-2.407-2.647Zm-5.745-5.261h1.356v3.164H50.229Zm0,4.567h1.356V219.3H50.229Z" transform="translate(-45.43 -208.74)" fill="#1e5aa5" fill-rule="evenodd"/>
</svg>
