<svg xmlns="http://www.w3.org/2000/svg" width="54" height="30" viewBox="0 0 33.789 13.389">
  <g id="Group_1142" data-name="Group 1142" transform="translate(-696.186 -391)">
    <g id="Group_1117" data-name="Group 1117" transform="translate(11 39)">
      <g id="Group_1105" data-name="Group 1105" transform="translate(532 116)">
        <g id="Group_1101" data-name="Group 1101" transform="translate(158.605 236)" opacity="0.15">
          <path id="Path_556" data-name="Path 556" d="M47.032,208.74h3.2v1.426h1.356V208.74H67.4a1.607,1.607,0,0,1,1.6,1.6v10.184a1.607,1.607,0,0,1-1.6,1.6H51.585V220.7H50.229v1.426h-3.2a1.607,1.607,0,0,1-1.6-1.6V210.343a1.607,1.607,0,0,1,1.6-1.6Zm8.941,8.09,1.562-.155a1.6,1.6,0,0,0,1.726,1.517c.674,0,1.552-.274,1.552-1.091,0-.851-1.371-1.008-2.014-1.168-1.265-.317-2.527-.873-2.527-2.389a2.243,2.243,0,0,1,2.108-2.161v-1h1.631v1.009a2.359,2.359,0,0,1,2.175,2.362l-1.606.055c-.143-.856-.6-1.152-1.443-1.152-.489,0-1.336.146-1.336.783,0,.685,1.209.9,1.706,1.015,1.54.362,2.912.819,2.912,2.639a2.452,2.452,0,0,1-2.407,2.406v.991H58.38v-1.011a2.734,2.734,0,0,1-2.407-2.647Zm-5.745-5.261h1.356v3.164H50.229Zm0,4.567h1.356V219.3H50.229Z" transform="translate(-45.43 -208.74)" fill="#1e5aa5" fill-rule="evenodd"/>
        </g>
        <path id="Path_1047" data-name="Path 1047" d="M-14.135-4.785a1.234,1.234,0,0,0-1.059.514,2.39,2.39,0,0,0-.375,1.432q0,1.91,1.434,1.91a4.532,4.532,0,0,0,1.457-.3V-.215a4.046,4.046,0,0,1-1.57.293,2.4,2.4,0,0,1-1.906-.756,3.2,3.2,0,0,1-.66-2.17,3.543,3.543,0,0,1,.324-1.561,2.343,2.343,0,0,1,.932-1.027,2.756,2.756,0,0,1,1.424-.357,3.843,3.843,0,0,1,1.672.4l-.391.984a6.466,6.466,0,0,0-.645-.266A1.923,1.923,0,0,0-14.135-4.785Zm3.527,2.594a1.833,1.833,0,0,0,.213.98A.761.761,0,0,0-9.7-.879a.749.749,0,0,0,.686-.33,1.859,1.859,0,0,0,.209-.982,1.8,1.8,0,0,0-.211-.973.763.763,0,0,0-.691-.324.76.76,0,0,0-.687.322A1.8,1.8,0,0,0-10.607-2.191Zm3.02,0A2.347,2.347,0,0,1-8.15-.523a2.04,2.04,0,0,1-1.566.6A2.191,2.191,0,0,1-10.826-.2a1.832,1.832,0,0,1-.738-.791,2.658,2.658,0,0,1-.258-1.2,2.334,2.334,0,0,1,.559-1.664,2.051,2.051,0,0,1,1.57-.594,2.2,2.2,0,0,1,1.109.273,1.825,1.825,0,0,1,.738.785A2.633,2.633,0,0,1-7.588-2.191ZM-3.51,0l-.16-.559h-.062a1.257,1.257,0,0,1-.543.471,1.854,1.854,0,0,1-.8.166,1.525,1.525,0,0,1-1.16-.412A1.658,1.658,0,0,1-6.627-1.52V-4.367h1.191v2.551a1.225,1.225,0,0,0,.168.709.611.611,0,0,0,.535.236.8.8,0,0,0,.723-.334,2.071,2.071,0,0,0,.223-1.107V-4.367H-2.6V0ZM1.053.078A1.448,1.448,0,0,1-.154-.48H-.217q.063.547.063.633v1.77H-1.346V-4.367h.969l.168.566h.055a1.378,1.378,0,0,1,1.238-.648,1.417,1.417,0,0,1,1.211.6,2.764,2.764,0,0,1,.438,1.66A3.278,3.278,0,0,1,2.527-.977a1.7,1.7,0,0,1-.584.785A1.5,1.5,0,0,1,1.053.078ZM.7-3.5a.752.752,0,0,0-.645.271,1.559,1.559,0,0,0-.211.9V-2.2A1.84,1.84,0,0,0,.055-1.191a.746.746,0,0,0,.662.3q.8,0,.8-1.32a1.885,1.885,0,0,0-.2-.967A.673.673,0,0,0,.7-3.5Zm3.965,1.3a1.833,1.833,0,0,0,.213.98.761.761,0,0,0,.693.332.749.749,0,0,0,.686-.33,1.859,1.859,0,0,0,.209-.982,1.8,1.8,0,0,0-.211-.973.763.763,0,0,0-.691-.324.76.76,0,0,0-.687.322A1.8,1.8,0,0,0,4.666-2.191Zm3.02,0A2.347,2.347,0,0,1,7.123-.523a2.04,2.04,0,0,1-1.566.6A2.191,2.191,0,0,1,4.447-.2a1.832,1.832,0,0,1-.738-.791,2.658,2.658,0,0,1-.258-1.2A2.334,2.334,0,0,1,4.01-3.855a2.051,2.051,0,0,1,1.57-.594,2.2,2.2,0,0,1,1.109.273,1.825,1.825,0,0,1,.738.785A2.633,2.633,0,0,1,7.686-2.191ZM12.7,0H11.51V-2.551a1.225,1.225,0,0,0-.168-.709.611.611,0,0,0-.535-.236.8.8,0,0,0-.723.334,2.071,2.071,0,0,0-.223,1.107V0H8.67V-4.367h.91l.16.559h.066a1.259,1.259,0,0,1,.549-.479,1.869,1.869,0,0,1,.795-.162,1.527,1.527,0,0,1,1.156.412A1.654,1.654,0,0,1,12.7-2.848Zm4.273-1.3a1.2,1.2,0,0,1-.467,1.023,2.306,2.306,0,0,1-1.4.352A4.386,4.386,0,0,1,14.3.014a3.073,3.073,0,0,1-.629-.189V-1.16a4.153,4.153,0,0,0,.748.262,3.029,3.029,0,0,0,.732.105q.648,0,.648-.375a.313.313,0,0,0-.086-.229,1.246,1.246,0,0,0-.3-.2q-.211-.111-.562-.26a3.534,3.534,0,0,1-.74-.391,1.1,1.1,0,0,1-.344-.412,1.36,1.36,0,0,1-.107-.572,1.037,1.037,0,0,1,.451-.9,2.2,2.2,0,0,1,1.279-.318,3.631,3.631,0,0,1,1.535.344l-.359.859q-.328-.141-.613-.23a1.926,1.926,0,0,0-.582-.09q-.527,0-.527.285a.335.335,0,0,0,.17.277,4.621,4.621,0,0,0,.744.348,3.457,3.457,0,0,1,.75.387,1.144,1.144,0,0,1,.352.414A1.272,1.272,0,0,1,16.975-1.3Z" transform="translate(170 246)" fill="#1e5aa5"/>
      </g>
    </g>
  </g>
</svg>
