<svg xmlns="http://www.w3.org/2000/svg" width="25" height="25" viewBox="0 0 18.764 18.247">
  <g id="Group_1100" data-name="Group 1100" transform="translate(-31.253 -30.733)">
    <path id="Path_1029" data-name="Path 1029" d="M63.239,32.313l-1.389-1.389a.657.657,0,0,0-.926,0l-2.161,2.16-.232.232-2.16,2.16a.657.657,0,0,0,0,.926l.2.2-.833.833c-1.191-.223-3.15.764-4.494,2.108a4.642,4.642,0,0,0-1.383,2.271h.507A4.442,4.442,0,0,1,51.6,39.894a6.451,6.451,0,0,1,3.8-2,7.814,7.814,0,0,0-.781.5,21.062,21.062,0,0,0-2.431,2.092,14.566,14.566,0,0,0-1.192,1.333h.629c.239-.284.536-.611.911-.986a15.726,15.726,0,0,1,3.226-2.579l.149.149a15.72,15.72,0,0,1-2.58,3.225c-.066.066-.13.129-.193.191h.694a20.715,20.715,0,0,0,1.937-2.273,7.8,7.8,0,0,0,.5-.781,5.722,5.722,0,0,1-1.345,3.054h.613a5.128,5.128,0,0,0,1.184-3.4l.833-.833.2.2a.657.657,0,0,0,.926,0l2.16-2.161.231-.231,2.161-2.161A.655.655,0,0,0,63.239,32.313Z" transform="translate(-13.413)" fill="#1e5aa5"/>
    <path id="Path_1030" data-name="Path 1030" d="M39.3,78.619a8.166,8.166,0,0,0,8.042-6.757H31.253A8.166,8.166,0,0,0,39.3,78.619Zm-1.349-1.084s-4.259-.638-5.388-4.665H34.3A5.7,5.7,0,0,0,37.946,77.535Z" transform="translate(0 -29.64)" fill="#1e5aa5"/>
  </g>
</svg>
