<svg xmlns="http://www.w3.org/2000/svg" width="20" height="25" viewBox="0 0 13.926 16.247">
  <g id="Group_1078" data-name="Group 1078" transform="translate(-64 -32)">
    <path id="Path_999" data-name="Path 999" d="M171.191,78.383A3.191,3.191,0,1,0,168,75.191,3.195,3.195,0,0,0,171.191,78.383Zm-.611-3.834.611-1.238.611,1.238,1.366.2-.988.963.233,1.36-1.222-.642-1.222.642.233-1.36-.988-.963Z" transform="translate(-100.228 -38.549)" fill="#1e5aa5"/>
    <path id="Path_1000" data-name="Path 1000" d="M70.963,256.016a5.21,5.21,0,0,1-3.95-1.806L64,259.5h3.481l1.741,2.9,1.741-3.837,1.22-2.689A5.233,5.233,0,0,1,70.963,256.016Z" transform="translate(0 -214.152)" fill="#1e5aa5"/>
    <path id="Path_1001" data-name="Path 1001" d="M132.642,41.284A4.642,4.642,0,1,0,128,36.642,4.642,4.642,0,0,0,132.642,41.284Zm0-8.123a3.481,3.481,0,1,1-3.481,3.481A3.481,3.481,0,0,1,132.642,33.16Z" transform="translate(-61.679)" fill="#1e5aa5"/>
    <path id="Path_1002" data-name="Path 1002" d="M267.768,254.211a5.235,5.235,0,0,1-2.032,1.442l-1.623,3.557,1.446,3.189,1.741-2.9h3.481Z" transform="translate(-192.856 -214.153)" fill="#1e5aa5"/>
  </g>
</svg>
