<svg id="Group_4021" data-name="Group 4021" xmlns="http://www.w3.org/2000/svg" xmlns:xlink="http://www.w3.org/1999/xlink" width="31.717" height="31.717" viewBox="0 0 31.717 31.717">
  <defs>
    <clipPath id="clip-path">
      <rect id="Rectangle_3389" data-name="Rectangle 3389" width="31.717" height="31.717" fill="none"/>
    </clipPath>
  </defs>
  <g id="Group_3972" data-name="Group 3972" clip-path="url(#clip-path)">
    <path id="Path_637" data-name="Path 637" d="M15.857,2.857c4.234,0,4.736.016,6.408.092A8.774,8.774,0,0,1,25.21,3.5a4.914,4.914,0,0,1,1.823,1.186A4.913,4.913,0,0,1,28.22,6.506a8.775,8.775,0,0,1,.546,2.945c.076,1.672.092,2.174.092,6.408s-.016,4.736-.092,6.408a8.775,8.775,0,0,1-.546,2.945,5.252,5.252,0,0,1-3.01,3.01,8.774,8.774,0,0,1-2.945.546c-1.672.076-2.173.092-6.408.092s-4.736-.016-6.408-.092A8.774,8.774,0,0,1,6.5,28.221a4.915,4.915,0,0,1-1.823-1.186,4.914,4.914,0,0,1-1.186-1.823,8.776,8.776,0,0,1-.546-2.945c-.076-1.672-.092-2.174-.092-6.408s.016-4.736.092-6.408a8.776,8.776,0,0,1,.546-2.945A4.914,4.914,0,0,1,4.681,4.682,4.915,4.915,0,0,1,6.5,3.5,8.774,8.774,0,0,1,9.449,2.95c1.672-.076,2.174-.092,6.408-.092m0-2.857C11.55,0,11.01.018,9.319.1A11.641,11.641,0,0,0,5.47.833,7.774,7.774,0,0,0,2.661,2.662,7.773,7.773,0,0,0,.832,5.471,11.64,11.64,0,0,0,.094,9.32C.017,11.011,0,11.551,0,15.858s.018,4.847.1,6.538a11.64,11.64,0,0,0,.737,3.849,7.773,7.773,0,0,0,1.829,2.809A7.774,7.774,0,0,0,5.47,30.884a11.641,11.641,0,0,0,3.85.737c1.691.077,2.231.1,6.538.1s4.847-.018,6.538-.1a11.641,11.641,0,0,0,3.85-.737,8.109,8.109,0,0,0,4.638-4.638A11.64,11.64,0,0,0,31.62,22.4c.077-1.691.1-2.231.1-6.538s-.018-4.847-.1-6.538a11.64,11.64,0,0,0-.737-3.849,7.775,7.775,0,0,0-1.829-2.809A7.774,7.774,0,0,0,26.245.833,11.641,11.641,0,0,0,22.4.1C20.7.018,20.164,0,15.857,0" transform="translate(0.001 0)" fill="#fff"/>
    <path id="Path_638" data-name="Path 638" d="M130.7,122.556a8.143,8.143,0,1,0,8.143,8.143,8.144,8.144,0,0,0-8.143-8.143m0,13.43a5.286,5.286,0,1,1,5.286-5.286,5.286,5.286,0,0,1-5.286,5.286" transform="translate(-114.84 -114.841)" fill="#fff"/>
    <path id="Path_639" data-name="Path 639" d="M359.972,89.118a1.9,1.9,0,1,1-1.9-1.9,1.9,1.9,0,0,1,1.9,1.9" transform="translate(-333.745 -81.725)" fill="#fff"/>
  </g>
</svg>
