<svg xmlns="http://www.w3.org/2000/svg" xmlns:xlink="http://www.w3.org/1999/xlink" width="1479.635" height="363.523" viewBox="0 0 1479.635 363.523"><defs><style>.a{fill:#fda429;}.b{fill:url(#a);}.c{fill:url(#b);}.d{filter:url(#c);}</style><linearGradient id="a" x1="0.5" x2="0.5" y2="1" gradientUnits="objectBoundingBox"><stop offset="0" stop-color="#1299e5"/><stop offset="1" stop-color="#087cbd"/></linearGradient><linearGradient id="b" x1="0.5" x2="0.5" y2="1" gradientUnits="objectBoundingBox"><stop offset="0" stop-color="#15a1ef"/><stop offset="1" stop-color="#087cbd"/></linearGradient><filter id="c" x="0" y="0" width="1456.993" height="348.957" filterUnits="userSpaceOnUse"><feOffset dy="3" input="SourceAlpha"/><feGaussianBlur stdDeviation="3" result="d"/><feFlood flood-opacity="0.161"/><feComposite operator="in" in2="d"/><feComposite in="SourceGraphic"/></filter></defs><g transform="translate(8.505 -34)"><g transform="matrix(0.438, -0.899, 0.899, 0.438, 848.126, 733.296)"><path class="a" d="M611.5,21.827a.1.1,0,0,0,.066-.183.1.1,0,1,0-.066.183Z" transform="translate(51.092)"/><path class="a" d="M621.073,25.441a.194.194,0,0,0,.251-.116.2.2,0,1,0-.367-.133A.194.194,0,0,0,621.073,25.441Z" transform="translate(56.967 2.498)"/><path class="a" d="M630.646,29.054a.289.289,0,0,0,.375-.175.292.292,0,1,0-.55-.2A.29.29,0,0,0,630.646,29.054Z" transform="translate(62.84 4.996)"/><path class="a" d="M640.213,32.536a.292.292,0,0,0,.2-.55.292.292,0,1,0-.2.55Z" transform="translate(68.755 7.537)"/><path class="a" d="M649.776,36.019a.294.294,0,1,0-.173-.375A.291.291,0,0,0,649.776,36.019Z" transform="translate(74.669 10.076)"/><path class="a" d="M659.343,39.5a.294.294,0,0,0,.2-.552.3.3,0,0,0-.377.176A.293.293,0,0,0,659.343,39.5Z" transform="translate(80.583 12.615)"/><path class="a" d="M668.9,42.849a.2.2,0,0,0,.135-.368.2.2,0,0,0-.135.368Z" transform="translate(86.542 15.196)"/><path class="a" d="M598.45,27.844a.047.047,0,0,0,.062-.029.049.049,0,1,0-.062.029Z" transform="translate(43.043 4.459)"/><path class="a" d="M608.018,31.392a.1.1,0,0,0,.068-.183.1.1,0,0,0-.068.183Z" transform="translate(48.939 6.978)"/><path class="a" d="M617.591,35.007a.2.2,0,0,0,.253-.118.2.2,0,0,0-.368-.133A.2.2,0,0,0,617.591,35.007Z" transform="translate(54.814 9.476)"/><path class="a" d="M627.164,38.621a.293.293,0,1,0-.174-.375A.294.294,0,0,0,627.164,38.621Z" transform="translate(60.687 11.974)"/><path class="a" d="M636.729,42.1a.292.292,0,0,0,.377-.175.293.293,0,1,0-.55-.2A.29.29,0,0,0,636.729,42.1Z" transform="translate(66.602 14.514)"/><path class="a" d="M646.3,45.583a.293.293,0,1,0-.176-.375A.293.293,0,0,0,646.3,45.583Z" transform="translate(72.516 17.054)"/><path class="a" d="M655.86,49.064a.293.293,0,0,0,.2-.55.3.3,0,0,0-.375.175A.291.291,0,0,0,655.86,49.064Z" transform="translate(78.43 19.594)"/><path class="a" d="M665.419,52.414a.2.2,0,1,0,.133-.367.2.2,0,1,0-.133.367Z" transform="translate(84.389 22.174)"/><path class="a" d="M674.975,55.762a.1.1,0,0,0,.125-.059.094.094,0,0,0-.059-.125.1.1,0,0,0-.066.183Z" transform="translate(90.349 24.755)"/><path class="a" d="M585.411,34.059a.145.145,0,0,0,.187-.086.143.143,0,0,0-.086-.187.147.147,0,0,0-.188.086A.146.146,0,0,0,585.411,34.059Z" transform="translate(34.935 8.855)"/><path class="a" d="M594.991,37.807a.341.341,0,1,0-.2-.438A.34.34,0,0,0,594.991,37.807Z" transform="translate(40.772 11.313)"/><path class="a" d="M604.576,41.623a.586.586,0,1,0-.349-.751A.587.587,0,0,0,604.576,41.623Z" transform="translate(46.586 13.749)"/><path class="a" d="M614.157,45.369a.78.78,0,1,0-.467-1A.78.78,0,0,0,614.157,45.369Z" transform="translate(52.418 16.207)"/><path class="a" d="M623.74,49.115a.975.975,0,1,0-.585-1.25A.973.973,0,0,0,623.74,49.115Z" transform="translate(58.246 18.664)"/><path class="a" d="M633.311,52.731a1.074,1.074,0,1,0-.642-1.375A1.073,1.073,0,0,0,633.311,52.731Z" transform="translate(64.114 21.162)"/><path class="a" d="M642.879,56.278a1.123,1.123,0,1,0-.669-1.439A1.126,1.126,0,0,0,642.879,56.278Z" transform="translate(70.003 23.681)"/><path class="a" d="M652.446,59.761a1.122,1.122,0,1,0-.671-1.439A1.121,1.121,0,0,0,652.446,59.761Z" transform="translate(75.912 26.221)"/><path class="a" d="M662,63.109a1.025,1.025,0,1,0-.612-1.314A1.026,1.026,0,0,0,662,63.109Z" transform="translate(81.864 24.254)"/><path class="a" d="M671.549,66.256a.78.78,0,1,0-.469-1A.779.779,0,0,0,671.549,66.256Z" transform="translate(87.885 26.487)"/><path class="a" d="M681.091,69.34a.487.487,0,1,0-.292-.626A.487.487,0,0,0,681.091,69.34Z" transform="translate(89.897 28.74)"/><path class="a" d="M690.625,72.289a.1.1,0,1,0,.066-.182.1.1,0,1,0-.066.182Z" transform="translate(97.04 31.033)"/><path class="a" d="M562.79,36.529a.05.05,0,0,0,.064-.029.049.049,0,0,0-.092-.035A.049.049,0,0,0,562.79,36.529Z" transform="translate(24.755 10.795)"/><path class="a" d="M572.366,40.211a.2.2,0,1,0-.116-.251A.2.2,0,0,0,572.366,40.211Z" transform="translate(26.848 13.272)"/><path class="a" d="M581.956,44.092a.489.489,0,1,0-.292-.626A.489.489,0,0,0,581.956,44.092Z" transform="translate(32.648 15.689)"/><path class="a" d="M591.55,48.037a.829.829,0,1,0-.5-1.062A.828.828,0,0,0,591.55,48.037Z" transform="translate(38.424 18.084)"/><path class="a" d="M601.141,51.985a1.172,1.172,0,1,0-.7-1.5A1.173,1.173,0,0,0,601.141,51.985Z" transform="translate(44.196 20.48)"/><path class="a" d="M610.732,55.931a1.513,1.513,0,1,0-.9-1.939A1.512,1.512,0,0,0,610.732,55.931Z" transform="translate(49.964 22.875)"/><path class="a" d="M620.319,59.744a1.757,1.757,0,1,0-1.05-2.254A1.759,1.759,0,0,0,620.319,59.744Z" transform="translate(55.768 25.312)"/><path class="a" d="M629.909,63.624A2.049,2.049,0,1,0,628.682,61,2.048,2.048,0,0,0,629.909,63.624Z" transform="translate(61.548 23.323)"/><path class="a" d="M639.483,67.307a2.2,2.2,0,1,0-1.311-2.816A2.2,2.2,0,0,0,639.483,67.307Z" transform="translate(67.387 25.402)"/><path class="a" d="M649.054,70.855a2.245,2.245,0,1,0-1.342-2.878A2.248,2.248,0,0,0,649.054,70.855Z" transform="translate(73.267 27.52)"/><path class="a" d="M658.615,74.27a2.2,2.2,0,1,0-1.313-2.816A2.2,2.2,0,0,0,658.615,74.27Z" transform="translate(79.19 29.674)"/><path class="a" d="M668.16,77.417a1.952,1.952,0,1,0-1.166-2.5A1.95,1.95,0,0,0,668.16,77.417Z" transform="translate(85.203 31.906)"/><path class="a" d="M677.69,80.3a1.514,1.514,0,1,0-.9-1.94A1.516,1.516,0,0,0,677.69,80.3Z" transform="translate(91.308 34.215)"/><path class="a" d="M687.21,82.986a.928.928,0,1,0-.554-1.19A.929.929,0,0,0,687.21,82.986Z" transform="translate(94.15 36.585)"/><path class="a" d="M696.724,85.6a.293.293,0,1,0-.175-.375A.29.29,0,0,0,696.724,85.6Z" transform="translate(101.396 38.978)"/><path class="a" d="M706.27,88.752a.049.049,0,0,0,.062-.029.048.048,0,0,0-.029-.062.048.048,0,0,0-.062.029A.049.049,0,0,0,706.27,88.752Z" transform="translate(108.476 41.216)"/><path class="a" d="M559.316,46.229a.147.147,0,0,0,.1-.277.148.148,0,0,0-.1.277Z" transform="translate(22.175 17.731)"/><path class="a" d="M568.906,50.108a.439.439,0,1,0-.263-.564A.438.438,0,0,0,568.906,50.108Z" transform="translate(24.601 20.148)"/><path class="a" d="M578.5,54.122a.83.83,0,1,0-.495-1.065A.832.832,0,0,0,578.5,54.122Z" transform="translate(30.362 22.522)"/><path class="a" d="M588.094,58.069a1.172,1.172,0,1,0-.7-1.5A1.172,1.172,0,0,0,588.094,58.069Z" transform="translate(36.137 24.918)"/><path class="a" d="M597.7,62.149a1.611,1.611,0,1,0-.963-2.065A1.61,1.61,0,0,0,597.7,62.149Z" transform="translate(41.868 22.951)"/><path class="a" d="M607.292,66.16a2,2,0,1,0-1.2-2.565A2,2,0,0,0,607.292,66.16Z" transform="translate(47.614 24.938)"/><path class="a" d="M616.892,70.242a2.441,2.441,0,1,0-1.46-3.129A2.44,2.44,0,0,0,616.892,70.242Z" transform="translate(53.333 26.905)"/><path class="a" d="M626.488,74.255a2.832,2.832,0,1,0-1.692-3.63A2.835,2.835,0,0,0,626.488,74.255Z" transform="translate(59.068 28.888)"/><path class="a" d="M636.089,78.334a3.27,3.27,0,1,0-1.954-4.194A3.269,3.269,0,0,0,636.089,78.334Z" transform="translate(64.776 30.851)"/><path class="a" d="M645.669,82.081a3.466,3.466,0,1,0-2.07-4.443A3.466,3.466,0,0,0,645.669,82.081Z" transform="translate(70.585 32.908)"/><path class="a" d="M655.234,85.563a3.467,3.467,0,1,0-2.07-4.443A3.466,3.466,0,0,0,655.234,85.563Z" transform="translate(76.478 35.04)"/><path class="a" d="M664.8,88.978a3.416,3.416,0,1,0-2.043-4.381A3.417,3.417,0,0,0,664.8,88.978Z" transform="translate(82.394 37.192)"/><path class="a" d="M674.327,91.86a2.977,2.977,0,1,0-1.78-3.815A2.974,2.974,0,0,0,674.327,91.86Z" transform="translate(88.489 39.501)"/><path class="a" d="M683.83,94.278a2.2,2.2,0,1,0-1.314-2.814A2.2,2.2,0,0,0,683.83,94.278Z" transform="translate(91.075 41.95)"/><path class="a" d="M693.312,96.365a1.171,1.171,0,1,0-.7-1.5A1.173,1.173,0,0,0,693.312,96.365Z" transform="translate(98.485 44.502)"/><path class="a" d="M702.824,98.917a.489.489,0,1,0-.292-.628A.491.491,0,0,0,702.824,98.917Z" transform="translate(105.751 46.919)"/><path class="a" d="M712.354,101.8a.049.049,0,0,0,.062-.029.047.047,0,0,0-.031-.062.046.046,0,0,0-.06.029A.048.048,0,0,0,712.354,101.8Z" transform="translate(112.913 49.24)"/><path class="a" d="M546.263,52.18a.049.049,0,0,0,.062-.031.047.047,0,0,0-.029-.062.049.049,0,0,0-.033.093Z" transform="translate(12.698 22.21)"/><path class="a" d="M555.849,55.992a.293.293,0,0,0,.2-.55.3.3,0,0,0-.377.175A.291.291,0,0,0,555.849,55.992Z" transform="translate(19.573 24.647)"/><path class="a" d="M565.44,59.941a.635.635,0,1,0-.379-.815A.636.636,0,0,0,565.44,59.941Z" transform="translate(26.407 27.042)"/><path class="a" d="M575.034,63.887a.977.977,0,1,0-.585-1.252A.975.975,0,0,0,575.034,63.887Z" transform="translate(28.154 24.792)"/><path class="a" d="M584.625,67.832a1.318,1.318,0,1,0-.787-1.69A1.319,1.319,0,0,0,584.625,67.832Z" transform="translate(33.929 26.799)"/><path class="a" d="M594.218,71.778a1.659,1.659,0,1,0-.993-2.127A1.658,1.658,0,0,0,594.218,71.778Z" transform="translate(39.699 28.804)"/><path class="a" d="M603.818,75.859a2.1,2.1,0,1,0-1.254-2.691A2.1,2.1,0,0,0,603.818,75.859Z" transform="translate(45.425 30.77)"/><path class="a" d="M613.419,79.939a2.538,2.538,0,1,0-1.518-3.253A2.537,2.537,0,0,0,613.419,79.939Z" transform="translate(51.145 32.733)"/><path class="a" d="M623.028,84.153a3.076,3.076,0,1,0-1.84-3.943A3.075,3.075,0,0,0,623.028,84.153Z" transform="translate(56.818 34.655)"/><path class="a" d="M632.632,88.3A3.563,3.563,0,1,0,630.5,83.73,3.559,3.559,0,0,0,632.632,88.3Z" transform="translate(62.504 36.596)"/><path class="a" d="M642.247,92.644a4.2,4.2,0,1,0-2.509-5.382A4.2,4.2,0,0,0,642.247,92.644Z" transform="translate(68.121 38.474)"/><path class="a" d="M651.848,96.724a4.638,4.638,0,1,0-2.772-5.946A4.638,4.638,0,0,0,651.848,96.724Z" transform="translate(73.815 40.428)"/><path class="a" d="M661.415,100.272a4.687,4.687,0,1,0-2.8-6.008A4.693,4.693,0,0,0,661.415,100.272Z" transform="translate(79.678 42.538)"/><path class="a" d="M670.973,103.62a4.589,4.589,0,1,0-2.741-5.882A4.591,4.591,0,0,0,670.973,103.62Z" transform="translate(85.608 44.707)"/><path class="a" d="M680.478,106.038a3.808,3.808,0,1,0-2.278-4.881A3.806,3.806,0,0,0,680.478,106.038Z" transform="translate(91.855 47.157)"/><path class="a" d="M689.944,107.856a2.587,2.587,0,1,0-1.546-3.315A2.588,2.588,0,0,0,689.944,107.856Z" transform="translate(95.348 49.793)"/><path class="a" d="M699.4,109.544a1.269,1.269,0,1,0-.759-1.627A1.27,1.27,0,0,0,699.4,109.544Z" transform="translate(102.882 52.475)"/><path class="a" d="M708.894,111.763a.341.341,0,0,0,.439-.2.345.345,0,0,0-.206-.439.342.342,0,0,0-.234.643Z" transform="translate(110.251 55)"/><path class="a" d="M542.785,61.811a.1.1,0,0,0,.068-.183.1.1,0,0,0-.068.183Z" transform="translate(10.138 24.588)"/><path class="a" d="M552.37,65.625a.341.341,0,1,0-.2-.438A.343.343,0,0,0,552.37,65.625Z" transform="translate(17.013 26.635)"/><path class="a" d="M561.958,69.5a.634.634,0,1,0-.379-.811A.633.633,0,0,0,561.958,69.5Z" transform="translate(23.867 28.662)"/><path class="a" d="M571.551,73.452a.977.977,0,1,0-.583-1.25A.979.979,0,0,0,571.551,73.452Z" transform="translate(26.003 30.668)"/><path class="a" d="M581.139,77.331a1.269,1.269,0,1,0-.757-1.626A1.267,1.267,0,0,0,581.139,77.331Z" transform="translate(31.798 32.692)"/><path class="a" d="M590.736,81.345a1.66,1.66,0,1,0-.993-2.127A1.662,1.662,0,0,0,590.736,81.345Z" transform="translate(37.549 34.676)"/><path class="a" d="M600.334,85.359a2.05,2.05,0,1,0-1.226-2.627A2.052,2.052,0,0,0,600.334,85.359Z" transform="translate(43.296 36.658)"/><path class="a" d="M609.932,89.439a2.49,2.49,0,1,0-1.487-3.191A2.49,2.49,0,0,0,609.932,89.439Z" transform="translate(49.018 38.618)"/><path class="a" d="M619.542,93.651a3.026,3.026,0,1,0-1.809-3.879A3.028,3.028,0,0,0,619.542,93.651Z" transform="translate(54.693 40.537)"/><path class="a" d="M629.148,97.863A3.563,3.563,0,1,0,627.02,93.3,3.568,3.568,0,0,0,629.148,97.863Z" transform="translate(60.36 42.454)"/><path class="a" d="M638.769,102.275a4.247,4.247,0,1,0-2.539-5.444A4.248,4.248,0,0,0,638.769,102.275Z" transform="translate(65.957 44.308)"/><path class="a" d="M648.394,106.755a4.979,4.979,0,1,0-2.977-6.384A4.978,4.978,0,0,0,648.394,106.755Z" transform="translate(71.523 46.14)"/><path class="a" d="M658.012,111.166a5.663,5.663,0,1,0-3.385-7.257A5.662,5.662,0,0,0,658.012,111.166Z" transform="translate(77.1 47.987)"/><path class="a" d="M667.587,114.779a5.76,5.76,0,1,0-3.443-7.381A5.756,5.756,0,0,0,667.587,114.779Z" transform="translate(82.934 50.074)"/><path class="a" d="M677.134,117.929a5.516,5.516,0,1,0-3.3-7.068A5.512,5.512,0,0,0,677.134,117.929Z" transform="translate(88.924 52.302)"/><path class="a" d="M686.591,119.616a4.2,4.2,0,1,0-2.508-5.38A4.2,4.2,0,0,0,686.591,119.616Z" transform="translate(92.129 54.982)"/><path class="a" d="M696.014,120.639a2.392,2.392,0,1,0-1.432-3.066A2.393,2.393,0,0,0,696.014,120.639Z" transform="translate(99.868 57.875)"/><path class="a" d="M705.464,122.193a.977.977,0,1,0-.583-1.252A.977.977,0,0,0,705.464,122.193Z" transform="translate(107.443 60.611)"/><path class="a" d="M714.96,124.478a.1.1,0,1,0-.059-.126A.1.1,0,0,0,714.96,124.478Z" transform="translate(114.792 63.125)"/><path class="a" d="M539.3,71.376a.1.1,0,0,0,.126-.057.1.1,0,0,0-.06-.126.1.1,0,0,0-.123.059A.1.1,0,0,0,539.3,71.376Z" transform="translate(7.598 30.47)"/><path class="a" d="M548.889,75.191a.343.343,0,1,0-.2-.439A.342.342,0,0,0,548.889,75.191Z" transform="translate(14.473 32.515)"/><path class="a" d="M558.477,79.07a.635.635,0,1,0-.379-.813A.634.634,0,0,0,558.477,79.07Z" transform="translate(21.327 34.541)"/><path class="a" d="M568.065,82.949a.927.927,0,1,0-.555-1.188A.928.928,0,0,0,568.065,82.949Z" transform="translate(23.87 36.564)"/><path class="a" d="M577.647,86.7a1.123,1.123,0,1,0-.671-1.439A1.121,1.121,0,0,0,577.647,86.7Z" transform="translate(29.704 38.625)"/><path class="a" d="M587.226,90.444a1.318,1.318,0,1,0-.787-1.688A1.318,1.318,0,0,0,587.226,90.444Z" transform="translate(35.536 40.684)"/><path class="a" d="M596.816,94.325a1.611,1.611,0,1,0-.963-2.063A1.607,1.607,0,0,0,596.816,94.325Z" transform="translate(41.325 42.704)"/><path class="a" d="M606.408,98.271a1.952,1.952,0,1,0-1.166-2.5A1.95,1.95,0,0,0,606.408,98.271Z" transform="translate(47.091 44.703)"/><path class="a" d="M616.013,102.418a2.441,2.441,0,1,0-1.458-3.129A2.44,2.44,0,0,0,616.013,102.418Z" transform="translate(52.791 46.64)"/><path class="a" d="M625.634,106.831a3.124,3.124,0,1,0-1.87-4.005A3.124,3.124,0,0,0,625.634,106.831Z" transform="translate(58.402 48.493)"/><path class="a" d="M635.264,111.443a3.955,3.955,0,1,0-2.363-5.069A3.957,3.957,0,0,0,635.264,111.443Z" transform="translate(63.94 50.284)"/><path class="a" d="M644.907,116.253a4.931,4.931,0,1,0-2.947-6.319A4.928,4.928,0,0,0,644.907,116.253Z" transform="translate(69.403 52.008)"/><path class="a" d="M654.538,120.863a5.76,5.76,0,1,0-3.442-7.381A5.758,5.758,0,0,0,654.538,120.863Z" transform="translate(74.918 53.79)"/><path class="a" d="M664.185,125.741a6.786,6.786,0,1,0-4.054-8.7A6.786,6.786,0,0,0,664.185,125.741Z" transform="translate(80.333 55.485)"/><path class="a" d="M673.756,129.289a6.834,6.834,0,1,0-4.085-8.76A6.833,6.833,0,0,0,673.756,129.289Z" transform="translate(86.18 57.589)"/><path class="a" d="M683.25,131.574a5.956,5.956,0,1,0-3.559-7.634A5.957,5.957,0,0,0,683.25,131.574Z" transform="translate(92.459 60.087)"/><path class="a" d="M692.641,132.065a3.759,3.759,0,1,0-2.247-4.817A3.758,3.758,0,0,0,692.641,132.065Z" transform="translate(96.752 63.156)"/><path class="a" d="M702.041,132.753a1.708,1.708,0,1,0-1.021-2.19A1.7,1.7,0,0,0,702.041,132.753Z" transform="translate(104.595 66.172)"/><path class="a" d="M711.5,134.442a.391.391,0,1,0-.235-.5A.39.39,0,0,0,711.5,134.442Z" transform="translate(112.128 68.88)"/><path class="a" d="M535.822,80.94a.1.1,0,1,0-.057-.125A.1.1,0,0,0,535.822,80.94Z" transform="translate(5.059 36.353)"/><path class="a" d="M545.407,84.756a.341.341,0,1,0,.233-.642.341.341,0,1,0-.233.642Z" transform="translate(11.933 38.396)"/><path class="a" d="M554.992,88.568a.585.585,0,1,0-.349-.751A.587.587,0,0,0,554.992,88.568Z" transform="translate(18.808 40.439)"/><path class="a" d="M564.561,92.116a.634.634,0,1,0-.379-.811A.632.632,0,0,0,564.561,92.116Z" transform="translate(25.765 42.559)"/><path class="a" d="M574.134,95.731a.733.733,0,1,0-.438-.937A.733.733,0,0,0,574.134,95.731Z" transform="translate(27.705 44.658)"/><path class="a" d="M583.7,99.281a.782.782,0,1,0-.467-1A.782.782,0,0,0,583.7,99.281Z" transform="translate(33.597 46.778)"/><path class="a" d="M593.279,102.96a.928.928,0,1,0-.553-1.188A.928.928,0,0,0,593.279,102.96Z" transform="translate(39.45 48.857)"/><path class="a" d="M602.865,106.774a1.171,1.171,0,1,0-.7-1.5A1.168,1.168,0,0,0,602.865,106.774Z" transform="translate(45.261 50.895)"/><path class="a" d="M612.457,110.72a1.513,1.513,0,1,0-.9-1.94A1.512,1.512,0,0,0,612.457,110.72Z" transform="translate(51.028 52.891)"/><path class="a" d="M622.065,114.934a2.051,2.051,0,1,0-1.224-2.631A2.052,2.052,0,0,0,622.065,114.934Z" transform="translate(56.708 54.804)"/><path class="a" d="M631.7,119.545a2.879,2.879,0,1,0-1.721-3.691A2.88,2.88,0,0,0,631.7,119.545Z" transform="translate(62.256 56.592)"/><path class="a" d="M641.356,124.622a4.052,4.052,0,1,0-2.421-5.194A4.048,4.048,0,0,0,641.356,124.622Z" transform="translate(67.644 58.23)"/><path class="a" d="M651.036,130.031a5.468,5.468,0,1,0-3.269-7.008A5.466,5.466,0,0,0,651.036,130.031Z" transform="translate(72.908 59.758)"/><path class="a" d="M660.708,135.373a6.834,6.834,0,1,0-4.085-8.76A6.836,6.836,0,0,0,660.708,135.373Z" transform="translate(78.174 61.3)"/><path class="a" d="M670.286,139.054a6.98,6.98,0,1,0-4.173-8.947A6.979,6.979,0,0,0,670.286,139.054Z" transform="translate(83.977 63.361)"/><path class="a" d="M679.849,142.535a6.98,6.98,0,1,0-4.17-8.947A6.979,6.979,0,0,0,679.849,142.535Z" transform="translate(89.846 65.485)"/><path class="a" d="M689.257,143.291a4.978,4.978,0,1,0-2.976-6.382A4.98,4.98,0,0,0,689.257,143.291Z" transform="translate(93.697 68.482)"/><path class="a" d="M698.614,143.25a2.392,2.392,0,1,0-1.428-3.065A2.394,2.394,0,0,0,698.614,143.25Z" transform="translate(101.766 71.744)"/><path class="a" d="M708.049,144.472a.732.732,0,1,0-.439-.939A.733.733,0,0,0,708.049,144.472Z" transform="translate(109.445 74.61)"/><path class="a" d="M717.559,147.023a.048.048,0,0,0,.062-.029.047.047,0,0,0-.031-.062.05.05,0,0,0-.062.028A.051.051,0,0,0,717.559,147.023Z" transform="translate(116.71 77.052)"/><path class="a" d="M532.34,90.507a.1.1,0,0,0,.128-.059.1.1,0,0,0-.061-.125.1.1,0,0,0-.067.183Z" transform="translate(2.519 42.235)"/><path class="a" d="M541.923,94.256a.294.294,0,1,0-.176-.377A.3.3,0,0,0,541.923,94.256Z" transform="translate(9.414 44.296)"/><path class="a" d="M551.5,97.869a.391.391,0,1,0-.234-.5A.391.391,0,0,0,551.5,97.869Z" transform="translate(16.351 46.397)"/><path class="a" d="M561.062,101.416a.439.439,0,1,0,.3-.825.439.439,0,0,0-.3.825Z" transform="translate(23.308 48.518)"/><path class="a" d="M570.629,104.9a.439.439,0,1,0-.263-.562A.438.438,0,0,0,570.629,104.9Z" transform="translate(25.667 50.658)"/><path class="a" d="M580.187,108.247a.341.341,0,0,0,.233-.642.341.341,0,1,0-.233.642Z" transform="translate(31.618 52.838)"/><path class="a" d="M589.749,111.662a.293.293,0,1,0-.176-.377A.294.294,0,0,0,589.749,111.662Z" transform="translate(37.552 54.999)"/><path class="a" d="M599.322,115.276a.388.388,0,0,0,.5-.233.391.391,0,1,0-.5.233Z" transform="translate(43.427 57.098)"/><path class="a" d="M608.9,119.024a.587.587,0,1,0-.349-.752A.586.586,0,0,0,608.9,119.024Z" transform="translate(49.26 59.156)"/><path class="a" d="M618.495,122.968a.927.927,0,1,0-.555-1.188A.925.925,0,0,0,618.495,122.968Z" transform="translate(55.029 61.151)"/><path class="a" d="M628.1,127.248a1.513,1.513,0,1,0-.9-1.939A1.516,1.516,0,0,0,628.1,127.248Z" transform="translate(60.691 63.039)"/><path class="a" d="M637.757,132.194a2.588,2.588,0,1,0-1.546-3.319A2.59,2.59,0,0,0,637.757,132.194Z" transform="translate(66.133 64.715)"/><path class="a" d="M647.447,137.8a4.149,4.149,0,1,0-2.478-5.318A4.151,4.151,0,0,0,647.447,137.8Z" transform="translate(71.347 66.174)"/><path class="a" d="M657.188,144.274a6.346,6.346,0,1,0-3.793-8.134A6.346,6.346,0,0,0,657.188,144.274Z" transform="translate(76.255 67.349)"/><path class="a" d="M666.8,148.619a6.981,6.981,0,1,0-4.172-8.948A6.983,6.983,0,0,0,666.8,148.619Z" transform="translate(81.841 69.196)"/><path class="a" d="M676.369,152.1a6.98,6.98,0,1,0-4.172-8.947A6.98,6.98,0,0,0,676.369,152.1Z" transform="translate(87.71 71.319)"/><path class="a" d="M685.836,153.922a5.762,5.762,0,1,0-3.442-7.385A5.764,5.764,0,0,0,685.836,153.922Z" transform="translate(90.828 73.984)"/><path class="a" d="M695.168,153.414a2.831,2.831,0,1,0-1.693-3.63A2.83,2.83,0,0,0,695.168,153.414Z" transform="translate(99.041 77.416)"/><path class="a" d="M704.582,154.3a.927.927,0,1,0-.555-1.19A.929.929,0,0,0,704.582,154.3Z" transform="translate(106.822 80.401)"/><path class="a" d="M714.074,156.588a.05.05,0,0,0,.066-.029.051.051,0,0,0-.031-.062.046.046,0,0,0-.06.029A.048.048,0,0,0,714.074,156.588Z" transform="translate(114.171 82.935)"/><path class="a" d="M528.856,100.006a.05.05,0,0,0,.062-.031.049.049,0,0,0-.092-.033A.049.049,0,0,0,528.856,100.006Z" transform="translate(0 48.137)"/><path class="a" d="M538.429,103.621a.147.147,0,0,0,.1-.277.143.143,0,0,0-.185.088A.146.146,0,0,0,538.429,103.621Z" transform="translate(6.937 50.238)"/><path class="a" d="M548,107.235a.246.246,0,0,0,.313-.147.244.244,0,1,0-.313.147Z" transform="translate(13.873 52.338)"/><path class="a" d="M557.565,110.715a.247.247,0,0,0,.315-.145.244.244,0,0,0-.458-.168A.246.246,0,0,0,557.565,110.715Z" transform="translate(20.851 54.479)"/><path class="a" d="M567.128,114.131a.2.2,0,0,0,.251-.118.194.194,0,0,0-.118-.249.2.2,0,0,0-.133.367Z" transform="translate(23.608 56.64)"/><path class="a" d="M576.685,117.479a.1.1,0,0,0,.067-.183.1.1,0,0,0-.124.059A.1.1,0,0,0,576.685,117.479Z" transform="translate(29.561 58.822)"/><path class="a" d="M624.546,135.482a.536.536,0,1,0-.32-.687A.535.535,0,0,0,624.546,135.482Z" transform="translate(58.953 69.336)"/><path class="a" d="M634.166,139.9a1.22,1.22,0,1,0-.728-1.563A1.221,1.221,0,0,0,634.166,139.9Z" transform="translate(64.573 71.177)"/><path class="a" d="M643.842,145.239a2.586,2.586,0,1,0-1.548-3.317A2.587,2.587,0,0,0,643.842,145.239Z" transform="translate(69.885 72.715)"/><path class="a" d="M653.579,151.644a4.734,4.734,0,1,0-2.831-6.069A4.73,4.73,0,0,0,653.579,151.644Z" transform="translate(74.832 73.901)"/><path class="a" d="M663.323,158.186a6.981,6.981,0,1,0-4.171-8.95A6.983,6.983,0,0,0,663.323,158.186Z" transform="translate(79.705 75.03)"/><path class="a" d="M672.887,161.666a6.981,6.981,0,1,0-4.17-8.948A6.981,6.981,0,0,0,672.887,161.666Z" transform="translate(85.573 77.154)"/><path class="a" d="M682.36,163.554a5.81,5.81,0,1,0-3.473-7.449A5.811,5.811,0,0,0,682.36,163.554Z" transform="translate(91.987 79.806)"/><path class="a" d="M691.691,163.046a2.881,2.881,0,1,0-1.723-3.692A2.881,2.881,0,0,0,691.691,163.046Z" transform="translate(96.481 83.257)"/><path class="a" d="M701.1,163.935a.977.977,0,1,0-.585-1.254A.978.978,0,0,0,701.1,163.935Z" transform="translate(104.262 86.255)"/><path class="a" d="M710.594,166.152a.049.049,0,0,0,.064-.028.044.044,0,0,0-.029-.061.048.048,0,0,0-.064.026A.052.052,0,0,0,710.594,166.152Z" transform="translate(111.631 88.818)"/><path class="a" d="M534.943,113.119a.1.1,0,0,0,.124-.059.1.1,0,0,0-.182-.067A.1.1,0,0,0,534.943,113.119Z" transform="translate(4.418 56.14)"/><path class="a" d="M544.513,116.665a.143.143,0,0,0,.187-.086.146.146,0,1,0-.187.086Z" transform="translate(11.375 58.261)"/><path class="a" d="M554.078,120.148a.146.146,0,0,0,.1-.275.146.146,0,1,0-.1.275Z" transform="translate(18.352 60.401)"/><path class="a" d="M563.638,123.563a.1.1,0,1,0-.057-.125A.1.1,0,0,0,563.638,123.563Z" transform="translate(25.35 62.563)"/><path class="a" d="M573.2,126.978a.052.052,0,0,0,.064-.029.046.046,0,0,0-.029-.061.045.045,0,0,0-.062.028A.047.047,0,0,0,573.2,126.978Z" transform="translate(27.427 64.725)"/><path class="a" d="M630.61,148.2a.294.294,0,1,0,.2-.552.29.29,0,0,0-.374.175A.294.294,0,0,0,630.61,148.2Z" transform="translate(62.819 77.463)"/><path class="a" d="M640.253,153.01a1.27,1.27,0,1,0-.756-1.627A1.269,1.269,0,0,0,640.253,153.01Z" transform="translate(68.31 79.168)"/><path class="a" d="M649.962,158.953a3.077,3.077,0,1,0-1.837-3.943A3.077,3.077,0,0,0,649.962,158.953Z" transform="translate(73.422 80.496)"/><path class="a" d="M659.723,165.756a5.516,5.516,0,1,0-3.3-7.07A5.518,5.518,0,0,0,659.723,165.756Z" transform="translate(78.225 81.528)"/><path class="a" d="M669.346,170.234a6.249,6.249,0,1,0-3.732-8.011A6.25,6.25,0,0,0,669.346,170.234Z" transform="translate(83.771 83.322)"/><path class="a" d="M678.843,172.52a5.37,5.37,0,1,0-3.208-6.883A5.374,5.374,0,0,0,678.843,172.52Z" transform="translate(90.051 85.85)"/><path class="a" d="M688.2,172.476a2.782,2.782,0,1,0-1.662-3.563A2.782,2.782,0,0,0,688.2,172.476Z" transform="translate(93.983 89.165)"/><path class="a" d="M697.619,173.433a.927.927,0,1,0-.555-1.188A.93.93,0,0,0,697.619,173.433Z" transform="translate(101.743 92.154)"/><path class="a" d="M707.113,175.719a.051.051,0,0,0,.064-.031.049.049,0,0,0-.031-.061.048.048,0,0,0-.062.028A.052.052,0,0,0,707.113,175.719Z" transform="translate(109.091 90.417)"/><path class="a" d="M531.457,122.617a.047.047,0,0,0,.062-.028.053.053,0,0,0-.028-.066.051.051,0,0,0-.062.031A.047.047,0,0,0,531.457,122.617Z" transform="translate(1.899 62.043)"/><path class="a" d="M541.024,126.1a.047.047,0,0,0,.061-.029.05.05,0,0,0-.028-.064.049.049,0,0,0-.062.031A.046.046,0,0,0,541.024,126.1Z" transform="translate(8.876 64.184)"/><path class="a" d="M550.587,129.58a.049.049,0,0,0,.064-.029.049.049,0,0,0-.029-.062.049.049,0,0,0-.035.092Z" transform="translate(15.854 66.325)"/><path class="a" d="M560.156,133.062a.049.049,0,0,0,.06-.029.047.047,0,0,0-.029-.062.047.047,0,0,0-.062.028A.048.048,0,0,0,560.156,133.062Z" transform="translate(22.831 68.466)"/><path class="a" d="M636.714,161.58a.542.542,0,0,0,.69-.325.537.537,0,1,0-.69.325Z" transform="translate(66.475 85.374)"/><path class="a" d="M646.389,166.921a1.9,1.9,0,1,0-1.138-2.44A1.9,1.9,0,0,0,646.389,166.921Z" transform="translate(71.789 86.892)"/><path class="a" d="M656.108,172.993a3.807,3.807,0,1,0-2.279-4.877A3.8,3.8,0,0,0,656.108,172.993Z" transform="translate(76.846 88.157)"/><path class="a" d="M665.714,177.205a4.344,4.344,0,1,0-2.6-5.565A4.342,4.342,0,0,0,665.714,177.205Z" transform="translate(82.495 90.041)"/><path class="a" d="M675.257,180.29a4.051,4.051,0,1,0-2.423-5.192A4.049,4.049,0,0,0,675.257,180.29Z" transform="translate(88.516 92.307)"/><path class="a" d="M684.678,181.312a2.245,2.245,0,1,0-1.344-2.878A2.243,2.243,0,0,0,684.678,181.312Z" transform="translate(91.669 91.388)"/><path class="a" d="M694.123,182.733a.731.731,0,1,0-.439-.939A.73.73,0,0,0,694.123,182.733Z" transform="translate(99.286 94.567)"/><path class="a" d="M703.631,185.283a.049.049,0,0,0,.064-.028.051.051,0,0,0-.03-.064.05.05,0,0,0-.062.031A.047.047,0,0,0,703.631,185.283Z" transform="translate(106.552 97.394)"/><path class="a" d="M633.205,170.679a.2.2,0,1,0-.116-.253A.2.2,0,0,0,633.205,170.679Z" transform="translate(64.469 91.41)"/><path class="a" d="M642.854,175.555a1.22,1.22,0,1,0-.73-1.563A1.22,1.22,0,0,0,642.854,175.555Z" transform="translate(69.939 93.078)"/><path class="a" d="M652.519,180.765a2.489,2.489,0,1,0-1.487-3.193A2.492,2.492,0,0,0,652.519,180.765Z" transform="translate(75.285 90.644)"/><path class="a" d="M662.107,184.645a2.782,2.782,0,1,0-1.662-3.566A2.78,2.78,0,0,0,662.107,184.645Z" transform="translate(81.054 93.06)"/><path class="a" d="M671.657,187.861a2.588,2.588,0,1,0-1.544-3.315A2.588,2.588,0,0,0,671.657,187.861Z" transform="translate(87.041 95.681)"/><path class="a" d="M681.129,189.748a1.416,1.416,0,1,0-.846-1.814A1.419,1.419,0,0,0,681.129,189.748Z" transform="translate(89.48 98.716)"/><path class="a" d="M690.611,191.764a.34.34,0,1,0,.232-.64.346.346,0,0,0-.439.2A.338.338,0,0,0,690.611,191.764Z" transform="translate(96.91 101.708)"/><path class="a" d="M629.712,180.042a.045.045,0,0,0,.062-.028.05.05,0,0,0-.029-.062.046.046,0,0,0-.061.029A.045.045,0,0,0,629.712,180.042Z" transform="translate(62.379 93.572)"/><path class="a" d="M639.324,184.324a.635.635,0,1,0-.379-.813A.639.639,0,0,0,639.324,184.324Z" transform="translate(68.042 95.864)"/><path class="a" d="M648.954,188.869a1.416,1.416,0,1,0-.849-1.816A1.413,1.413,0,0,0,648.954,188.869Z" transform="translate(73.61 98.074)"/><path class="a" d="M658.523,192.48a1.511,1.511,0,1,0-.9-1.939A1.514,1.514,0,0,0,658.523,192.48Z" transform="translate(79.474 100.574)"/><path class="a" d="M668.082,195.831a1.416,1.416,0,1,0-.846-1.814A1.419,1.419,0,0,0,668.082,195.831Z" transform="translate(85.424 103.154)"/><path class="a" d="M677.585,198.25a.635.635,0,1,0-.379-.813A.638.638,0,0,0,677.585,198.25Z" transform="translate(91.69 106.023)"/><path class="a" d="M687.108,201a.1.1,0,0,0,.125-.059.1.1,0,0,0-.057-.125.1.1,0,0,0-.126.057A.1.1,0,0,0,687.108,201Z" transform="translate(94.474 108.789)"/><path class="a" d="M635.812,193.357a.244.244,0,1,0-.147-.311A.247.247,0,0,0,635.812,193.357Z" transform="translate(66.058 103.007)"/><path class="a" d="M645.408,197.371a.635.635,0,1,0-.379-.815A.637.637,0,0,0,645.408,197.371Z" transform="translate(71.802 105.381)"/><path class="a" d="M654.981,200.984a.732.732,0,1,0-.438-.937A.732.732,0,0,0,654.981,200.984Z" transform="translate(77.671 107.88)"/><path class="a" d="M664.534,204.266a.585.585,0,1,0-.349-.751A.586.586,0,0,0,664.534,204.266Z" transform="translate(83.648 110.482)"/><path class="a" d="M674.069,207.215a.194.194,0,1,0-.117-.251A.2.2,0,0,0,674.069,207.215Z" transform="translate(89.739 113.186)"/><path class="a" d="M632.317,202.656a.049.049,0,0,0,.062-.029.049.049,0,1,0-.062.029Z" transform="translate(63.988 110.067)"/><path class="a" d="M641.889,206.269a.144.144,0,0,0,.187-.085.149.149,0,0,0-.088-.19.146.146,0,1,0-.1.275Z" transform="translate(69.862 112.565)"/><path class="a" d="M651.452,209.752a.146.146,0,0,0,.187-.086.146.146,0,0,0-.273-.1A.147.147,0,0,0,651.452,209.752Z" transform="translate(75.778 115.105)"/><path class="a" d="M661.014,213.167a.1.1,0,1,0-.057-.125A.1.1,0,0,0,661.014,213.167Z" transform="translate(81.714 117.665)"/></g><path class="b" d="M1551.487,6010.99s-71.228-22.165-197.87,40.609-287.153,130.458-486.42,139.349-293.165-38.859-489.116-17.158-265.586,64.667-265.586,64.667V5917.532L1551.487,5907.5Z" transform="translate(-112 -5840.934)"/><g class="d" transform="matrix(1, 0, 0, 1, -8.51, 34)"><path class="c" d="M1551.487,6010.99s-71.228-22.165-197.87,40.609-287.153,130.458-486.42,139.349-293.165-38.859-489.116-17.158-265.586,64.667-265.586,64.667V5917.532L1551.487,5907.5Z" transform="translate(-103.49 -5901.5)"/></g></g></svg>