<svg xmlns="http://www.w3.org/2000/svg" xmlns:xlink="http://www.w3.org/1999/xlink" width="1061.979" height="668.03" viewBox="0 0 1061.979 668.03"><defs><style>.a{stroke:#707070;fill:url(#a);}.b{opacity:0.338;}.c{fill:#1299e5;}.d{stroke:none;}.e{fill:none;}.f{filter:url(#b);}</style><linearGradient id="a" x1="0.23" x2="0.625" y2="1" gradientUnits="objectBoundingBox"><stop offset="0" stop-color="#1299e5"/><stop offset="1" stop-color="#087cbd"/></linearGradient><filter id="b" x="0" y="0" width="948" height="547" filterUnits="userSpaceOnUse"><feOffset dy="3" input="SourceAlpha"/><feGaussianBlur stdDeviation="3" result="c"/><feFlood flood-opacity="0.494"/><feComposite operator="in" in2="c"/><feComposite in="SourceGraphic"/></filter></defs><g transform="translate(-246 -266.791)"><g class="f" transform="matrix(1, 0, 0, 1, 246, 266.79)"><g class="a" transform="translate(9 6)"><rect class="d" width="930" height="529" rx="20"/><rect class="e" x="0.5" y="0.5" width="929" height="528" rx="19.5"/></g></g><g class="b" transform="translate(652.788 1301.743) rotate(-104)"><path class="c" d="M347.887,261.241a.063.063,0,0,0,.064-.059.066.066,0,0,0-.064-.067.063.063,0,0,0-.062.067A.059.059,0,0,0,347.887,261.241Z" transform="translate(153.658)"/><path class="c" d="M357.052,261.241a.059.059,0,0,0,.062-.059.063.063,0,0,0-.062-.067.064.064,0,0,0-.062.067A.061.061,0,0,0,357.052,261.241Z" transform="translate(170.725)"/><path class="c" d="M366.216,261.241a.063.063,0,0,0,.064-.059.066.066,0,0,0-.064-.067.062.062,0,0,0-.06.067A.059.059,0,0,0,366.216,261.241Z" transform="translate(187.794)"/><path class="c" d="M375.384,261.241a.063.063,0,0,0,.064-.059.066.066,0,0,0-.064-.067.065.065,0,0,0-.064.067A.061.061,0,0,0,375.384,261.241Z" transform="translate(204.859)"/><path class="c" d="M384.546,261.241a.064.064,0,0,0,.067-.059.067.067,0,0,0-.067-.067.064.064,0,0,0-.06.067A.06.06,0,0,0,384.546,261.241Z" transform="translate(221.928)"/><path class="c" d="M320.391,270.407a.061.061,0,0,0,.062-.062.061.061,0,0,0-.062-.064.062.062,0,0,0-.062.064A.063.063,0,0,0,320.391,270.407Z" transform="translate(102.454 13.551)"/><path class="c" d="M329.593,270.506a.125.125,0,1,0,0-.25.125.125,0,0,0,0,.25Z" transform="translate(119.482 13.514)"/><path class="c" d="M338.8,270.608a.188.188,0,1,0-.191-.188A.19.19,0,0,0,338.8,270.608Z" transform="translate(136.51 13.477)"/><path class="c" d="M348,270.708a.252.252,0,1,0-.253-.25A.252.252,0,0,0,348,270.708Z" transform="translate(153.542 13.439)"/><path class="c" d="M357.164,270.708a.252.252,0,1,0,0-.5.252.252,0,0,0,0,.5Z" transform="translate(170.614 13.439)"/><path class="c" d="M366.329,270.708a.252.252,0,1,0-.25-.25A.252.252,0,0,0,366.329,270.708Z" transform="translate(187.684 13.439)"/><path class="c" d="M375.5,270.708a.252.252,0,1,0,0-.5.252.252,0,0,0,0,.5Z" transform="translate(204.756 13.439)"/><path class="c" d="M384.622,270.608a.188.188,0,1,0,0-.377.188.188,0,0,0,0,.377Z" transform="translate(221.858 13.477)"/><path class="c" d="M393.751,270.506a.125.125,0,1,0,0-.25.125.125,0,1,0,0,.25Z" transform="translate(238.962 13.514)"/><path class="c" d="M402.878,270.407a.066.066,0,0,0,.067-.062.065.065,0,0,0-.067-.064.063.063,0,0,0-.062.064A.065.065,0,0,0,402.878,270.407Z" transform="translate(256.063 13.551)"/><path class="c" d="M311.264,279.674a.127.127,0,0,0,.126-.126.126.126,0,0,0-.253,0A.127.127,0,0,0,311.264,279.674Z" transform="translate(85.343 27.064)"/><path class="c" d="M320.542,279.975a.315.315,0,1,0-.315-.315A.315.315,0,0,0,320.542,279.975Z" transform="translate(102.288 26.952)"/><path class="c" d="M329.781,280.174a.44.44,0,1,0-.439-.439A.44.44,0,0,0,329.781,280.174Z" transform="translate(119.281 26.876)"/><path class="c" d="M339.024,280.376a.566.566,0,1,0-.568-.565A.567.567,0,0,0,339.024,280.376Z" transform="translate(136.276 26.801)"/><circle class="c" cx="0.566" cy="0.566" r="0.566" transform="translate(500.974 306.044)"/><path class="c" d="M357.352,280.376a.566.566,0,1,0-.565-.565A.567.567,0,0,0,357.352,280.376Z" transform="translate(170.429 26.801)"/><path class="c" d="M366.517,280.376a.566.566,0,1,0-.565-.565A.568.568,0,0,0,366.517,280.376Z" transform="translate(187.504 26.801)"/><path class="c" d="M375.648,280.275a.5.5,0,1,0-.506-.5A.5.5,0,0,0,375.648,280.275Z" transform="translate(204.614 26.839)"/><path class="c" d="M384.772,280.174a.44.44,0,1,0-.439-.439A.439.439,0,0,0,384.772,280.174Z" transform="translate(221.724 26.876)"/><path class="c" d="M393.864,279.975a.315.315,0,1,0-.315-.315A.317.317,0,0,0,393.864,279.975Z" transform="translate(238.863 26.952)"/><path class="c" d="M402.99,279.873a.252.252,0,1,0-.25-.25A.254.254,0,0,0,402.99,279.873Z" transform="translate(255.968 26.988)"/><path class="c" d="M412.082,279.674a.123.123,0,0,0,.124-.126.122.122,0,0,0-.124-.126.125.125,0,0,0-.126.126A.127.127,0,0,0,412.082,279.674Z" transform="translate(283.705 27.064)"/><path class="c" d="M421.211,279.572a.064.064,0,0,0,.064-.062.064.064,0,0,0-.129,0A.064.064,0,0,0,421.211,279.572Z" transform="translate(297.291 27.101)"/><path class="c" d="M292.895,288.737a.063.063,0,1,0-.062-.062A.063.063,0,0,0,292.895,288.737Z" transform="translate(40.687 40.65)"/><path class="c" d="M302.175,289.038a.252.252,0,1,0-.253-.25A.25.25,0,0,0,302.175,289.038Z" transform="translate(68.188 40.538)"/><path class="c" d="M330.007,289.945a.819.819,0,1,0-.818-.82A.821.821,0,0,0,330.007,289.945Z" transform="translate(119.039 40.201)"/><path class="c" d="M339.25,290.145a.944.944,0,1,0-.947-.944A.942.942,0,0,0,339.25,290.145Z" transform="translate(136.04 40.126)"/><path class="c" d="M348.413,290.145a.944.944,0,1,0-.944-.944A.946.946,0,0,0,348.413,290.145Z" transform="translate(153.124 40.126)"/><path class="c" d="M357.578,290.145a.944.944,0,1,0-.944-.944A.944.944,0,0,0,357.578,290.145Z" transform="translate(170.205 40.126)"/><path class="c" d="M366.743,290.145a.944.944,0,1,0-.944-.944A.945.945,0,0,0,366.743,290.145Z" transform="translate(187.287 40.126)"/><path class="c" d="M375.835,289.945a.819.819,0,1,0-.82-.82A.819.819,0,0,0,375.835,289.945Z" transform="translate(204.439 40.201)"/><path class="c" d="M384.923,289.742a.693.693,0,1,0-.692-.691A.692.692,0,0,0,384.923,289.742Z" transform="translate(221.587 40.275)"/><circle class="c" cx="0.566" cy="0.566" r="0.566" transform="translate(632.18 328.759)"/><path class="c" d="M403.066,289.24a.378.378,0,1,0-.377-.377A.377.377,0,0,0,403.066,289.24Z" transform="translate(255.903 40.463)"/><path class="c" d="M412.156,289.038a.252.252,0,1,0-.25-.25A.252.252,0,0,0,412.156,289.038Z" transform="translate(283.631 40.538)"/><path class="c" d="M421.246,288.839a.127.127,0,0,0,.126-.126.125.125,0,0,0-.126-.126.123.123,0,0,0-.124.126A.125.125,0,0,0,421.246,288.839Z" transform="translate(297.256 40.614)"/><path class="c" d="M430.374,288.737a.063.063,0,1,0,0-.126.063.063,0,0,0,0,.126Z" transform="translate(310.842 40.65)"/><path class="c" d="M320.993,299.511a1.071,1.071,0,1,0-1.071-1.068A1.074,1.074,0,0,0,320.993,299.511Z" transform="translate(101.794 53.6)"/><path class="c" d="M330.27,299.815a1.26,1.26,0,1,0-1.259-1.259A1.261,1.261,0,0,0,330.27,299.815Z" transform="translate(118.758 53.488)"/><path class="c" d="M339.474,299.914a1.322,1.322,0,1,0-1.323-1.321A1.321,1.321,0,0,0,339.474,299.914Z" transform="translate(135.806 53.451)"/><path class="c" d="M348.675,300.014a1.385,1.385,0,1,0-1.383-1.383A1.384,1.384,0,0,0,348.675,300.014Z" transform="translate(152.858 53.412)"/><path class="c" d="M357.8,299.914a1.322,1.322,0,1,0-1.321-1.321A1.323,1.323,0,0,0,357.8,299.914Z" transform="translate(169.984 53.451)"/><path class="c" d="M366.931,299.815a1.26,1.26,0,1,0-1.259-1.259A1.259,1.259,0,0,0,366.931,299.815Z" transform="translate(187.107 53.488)"/><path class="c" d="M375.985,299.511a1.071,1.071,0,1,0-1.071-1.068A1.074,1.074,0,0,0,375.985,299.511Z" transform="translate(204.3 53.6)"/><path class="c" d="M385.033,299.211a.882.882,0,1,0-.877-.88A.883.883,0,0,0,385.033,299.211Z" transform="translate(221.487 53.712)"/><path class="c" d="M394.089,298.908a.693.693,0,1,0-.692-.691A.692.692,0,0,0,394.089,298.908Z" transform="translate(238.666 53.826)"/><path class="c" d="M403.141,298.608a.5.5,0,1,0-.5-.5A.5.5,0,0,0,403.141,298.608Z" transform="translate(255.839 53.939)"/><path class="c" d="M412.233,298.406a.378.378,0,1,0-.379-.377A.379.379,0,0,0,412.233,298.406Z" transform="translate(283.554 54.014)"/><path class="c" d="M421.286,298.105a.19.19,0,1,0-.191-.188A.192.192,0,0,0,421.286,298.105Z" transform="translate(297.216 54.126)"/><path class="c" d="M430.411,298a.127.127,0,0,0,.126-.126.125.125,0,1,0-.25,0A.126.126,0,0,0,430.411,298Z" transform="translate(310.806 54.165)"/><path class="c" d="M283.808,307.269a.187.187,0,0,0,.186-.191.184.184,0,0,0-.186-.186.187.187,0,0,0-.191.186A.189.189,0,0,0,283.808,307.269Z" transform="translate(27.062 73.61)"/><path class="c" d="M321.293,309.482a1.575,1.575,0,1,0-1.574-1.576A1.576,1.576,0,0,0,321.293,309.482Z" transform="translate(101.465 72.742)"/><path class="c" d="M330.57,309.785a1.765,1.765,0,1,0-1.762-1.767A1.766,1.766,0,0,0,330.57,309.785Z" transform="translate(118.437 72.624)"/><path class="c" d="M339.738,309.785a1.765,1.765,0,1,0-1.765-1.767A1.765,1.765,0,0,0,339.738,309.785Z" transform="translate(135.532 72.624)"/><path class="c" d="M348.9,309.785a1.765,1.765,0,1,0-1.765-1.767A1.768,1.768,0,0,0,348.9,309.785Z" transform="translate(152.627 72.624)"/><path class="c" d="M358.028,309.681a1.7,1.7,0,1,0-1.7-1.7A1.7,1.7,0,0,0,358.028,309.681Z" transform="translate(169.762 72.663)"/><path class="c" d="M367.08,309.383a1.513,1.513,0,1,0-1.509-1.514A1.51,1.51,0,0,0,367.08,309.383Z" transform="translate(186.964 72.781)"/><path class="c" d="M376.1,308.982a1.261,1.261,0,1,0-1.262-1.264A1.263,1.263,0,0,0,376.1,308.982Z" transform="translate(204.194 72.939)"/><path class="c" d="M385.11,308.576a1.007,1.007,0,1,0-1.006-1.009A1.006,1.006,0,0,0,385.11,308.576Z" transform="translate(221.417 73.097)"/><path class="c" d="M394.164,308.275a.819.819,0,1,0-.818-.82A.818.818,0,0,0,394.164,308.275Z" transform="translate(238.6 73.215)"/><path class="c" d="M403.178,307.873a.568.568,0,1,0-.565-.568A.57.57,0,0,0,403.178,307.873Z" transform="translate(255.808 73.371)"/><path class="c" d="M412.269,307.674a.442.442,0,1,0-.439-.444A.44.44,0,0,0,412.269,307.674Z" transform="translate(283.518 73.45)"/><path class="c" d="M421.321,307.368a.252.252,0,1,0-.25-.25A.25.25,0,0,0,421.321,307.368Z" transform="translate(297.18 73.568)"/><path class="c" d="M430.411,307.171a.128.128,0,1,0-.124-.129A.128.128,0,0,0,430.411,307.171Z" transform="translate(310.806 73.647)"/><path class="c" d="M439.539,307.068A.066.066,0,0,0,439.6,307a.063.063,0,0,0-.126,0A.065.065,0,0,0,439.539,307.068Z" transform="translate(324.392 73.687)"/><circle class="c" cx="0.063" cy="0.063" r="0.063" transform="translate(288.09 404.532)"/><path class="c" d="M321.518,319.251a1.953,1.953,0,1,0-1.951-1.953A1.954,1.954,0,0,0,321.518,319.251Z" transform="translate(101.218 87.252)"/><path class="c" d="M330.8,319.549a2.14,2.14,0,1,0-2.141-2.139A2.142,2.142,0,0,0,330.8,319.549Z" transform="translate(118.195 87.135)"/><path class="c" d="M340,319.655a2.206,2.206,0,1,0-2.208-2.206A2.208,2.208,0,0,0,340,319.655Z" transform="translate(135.256 87.096)"/><path class="c" d="M349.127,319.549a2.14,2.14,0,1,0-2.141-2.139A2.14,2.14,0,0,0,349.127,319.549Z" transform="translate(152.4 87.135)"/><path class="c" d="M358.179,319.251a1.953,1.953,0,1,0-1.951-1.953A1.954,1.954,0,0,0,358.179,319.251Z" transform="translate(169.613 87.252)"/><path class="c" d="M367.193,318.847a1.7,1.7,0,1,0-1.7-1.7A1.7,1.7,0,0,0,367.193,318.847Z" transform="translate(186.857 87.409)"/><path class="c" d="M376.173,318.344a1.385,1.385,0,1,0-1.385-1.383A1.384,1.384,0,0,0,376.173,318.344Z" transform="translate(204.125 87.603)"/><path class="c" d="M385.147,317.842a1.071,1.071,0,1,0-1.068-1.071A1.073,1.073,0,0,0,385.147,317.842Z" transform="translate(221.384 87.8)"/><path class="c" d="M394.164,317.439a.818.818,0,1,0-.818-.818A.817.817,0,0,0,394.164,317.439Z" transform="translate(238.6 87.957)"/><path class="c" d="M403.178,317.037a.566.566,0,1,0-.565-.565A.569.569,0,0,0,403.178,317.037Z" transform="translate(255.808 88.112)"/><path class="c" d="M412.269,316.837a.441.441,0,1,0-.439-.441A.44.44,0,0,0,412.269,316.837Z" transform="translate(283.518 88.19)"/><path class="c" d="M421.321,316.536a.25.25,0,0,0,.253-.25.252.252,0,1,0-.5,0A.25.25,0,0,0,421.321,316.536Z" transform="translate(297.18 88.306)"/><path class="c" d="M430.411,316.335a.126.126,0,1,0-.124-.126A.127.127,0,0,0,430.411,316.335Z" transform="translate(310.806 88.386)"/><path class="c" d="M439.539,316.233a.062.062,0,0,0,.064-.062.063.063,0,1,0-.126,0A.061.061,0,0,0,439.539,316.233Z" transform="translate(324.392 88.424)"/><path class="c" d="M274.64,325.6a.19.19,0,0,0,.188-.191.188.188,0,1,0-.377,0A.19.19,0,0,0,274.64,325.6Z" transform="translate(13.513 103.085)"/><path class="c" d="M321.856,329.322a2.521,2.521,0,1,0-2.518-2.521A2.521,2.521,0,0,0,321.856,329.322Z" transform="translate(100.847 101.649)"/><path class="c" d="M331.1,329.52a2.644,2.644,0,1,0-2.645-2.644A2.644,2.644,0,0,0,331.1,329.52Z" transform="translate(117.874 101.572)"/><path class="c" d="M340.262,329.52a2.644,2.644,0,1,0-2.644-2.644A2.644,2.644,0,0,0,340.262,329.52Z" transform="translate(134.985 101.572)"/><path class="c" d="M349.354,329.322a2.521,2.521,0,1,0-2.521-2.521A2.521,2.521,0,0,0,349.354,329.322Z" transform="translate(152.17 101.649)"/><path class="c" d="M358.331,328.82a2.206,2.206,0,1,0-2.206-2.206A2.207,2.207,0,0,0,358.331,328.82Z" transform="translate(169.463 101.843)"/><path class="c" d="M367.231,328.115a1.765,1.765,0,1,0-1.762-1.765A1.765,1.765,0,0,0,367.231,328.115Z" transform="translate(186.82 102.114)"/><path class="c" d="M376.173,327.51a1.385,1.385,0,1,0-1.385-1.385A1.385,1.385,0,0,0,376.173,327.51Z" transform="translate(204.125 102.348)"/><path class="c" d="M385.147,327.011a1.073,1.073,0,1,0-1.068-1.073A1.074,1.074,0,0,0,385.147,327.011Z" transform="translate(221.384 102.54)"/><path class="c" d="M394.164,326.608a.82.82,0,1,0-.818-.82A.818.818,0,0,0,394.164,326.608Z" transform="translate(238.6 102.696)"/><path class="c" d="M403.178,326.2a.568.568,0,1,0-.565-.568A.571.571,0,0,0,403.178,326.2Z" transform="translate(255.808 102.851)"/><path class="c" d="M412.233,325.9a.377.377,0,1,0-.379-.377A.377.377,0,0,0,412.233,325.9Z" transform="translate(283.554 102.969)"/><path class="c" d="M421.321,325.7a.249.249,0,0,0,.253-.25.252.252,0,1,0-.5,0A.248.248,0,0,0,421.321,325.7Z" transform="translate(297.18 103.045)"/><path class="c" d="M430.411,325.5a.126.126,0,1,0-.124-.126A.125.125,0,0,0,430.411,325.5Z" transform="translate(310.806 103.123)"/><path class="c" d="M439.539,325.4a.063.063,0,1,0,0-.126.063.063,0,0,0,0,.126Z" transform="translate(324.392 103.163)"/><path class="c" d="M265.4,334.562a.061.061,0,0,0,.062-.06.063.063,0,1,0-.062.06Z" transform="translate(0.037 117.899)"/><path class="c" d="M312.768,338.684a2.643,2.643,0,1,0-2.647-2.642A2.642,2.642,0,0,0,312.768,338.684Z" transform="translate(83.652 116.323)"/><path class="c" d="M322.158,339.291a3.024,3.024,0,1,0-3.024-3.024A3.027,3.027,0,0,0,322.158,339.291Z" transform="translate(100.516 116.091)"/><path class="c" d="M331.36,339.392a3.087,3.087,0,1,0-3.086-3.086A3.088,3.088,0,0,0,331.36,339.392Z" transform="translate(117.592 116.052)"/><path class="c" d="M340.527,339.392a3.087,3.087,0,1,0-3.088-3.086A3.088,3.088,0,0,0,340.527,339.392Z" transform="translate(134.709 116.052)"/><path class="c" d="M349.54,338.99a2.835,2.835,0,1,0-2.833-2.833A2.834,2.834,0,0,0,349.54,338.99Z" transform="translate(151.981 116.205)"/><path class="c" d="M358.443,338.284a2.393,2.393,0,1,0-2.394-2.392A2.394,2.394,0,0,0,358.443,338.284Z" transform="translate(169.352 116.476)"/><path class="c" d="M367.268,337.379a1.827,1.827,0,1,0-1.824-1.824A1.825,1.825,0,0,0,367.268,337.379Z" transform="translate(186.784 116.821)"/><path class="c" d="M376.173,336.677a1.387,1.387,0,1,0-1.385-1.385A1.386,1.386,0,0,0,376.173,336.677Z" transform="translate(204.125 117.091)"/><path class="c" d="M385.11,336.072a1.007,1.007,0,1,0-1.006-1.006A1.006,1.006,0,0,0,385.11,336.072Z" transform="translate(221.417 117.323)"/><path class="c" d="M394.089,335.567a.692.692,0,1,0-.692-.689A.692.692,0,0,0,394.089,335.567Z" transform="translate(238.666 117.515)"/><path class="c" d="M403.1,335.167a.441.441,0,1,0-.439-.439A.438.438,0,0,0,403.1,335.167Z" transform="translate(255.872 117.668)"/><path class="c" d="M412.2,334.966a.315.315,0,1,0,0-.629.315.315,0,1,0,0,.629Z" transform="translate(283.591 117.745)"/><path class="c" d="M421.286,334.764a.188.188,0,0,0,.188-.186.19.19,0,0,0-.188-.191.193.193,0,0,0-.191.191A.19.19,0,0,0,421.286,334.764Z" transform="translate(297.216 117.822)"/><path class="c" d="M430.411,334.665a.125.125,0,0,0,.126-.124.125.125,0,1,0-.25,0A.124.124,0,0,0,430.411,334.665Z" transform="translate(310.806 117.86)"/><path class="c" d="M439.539,334.562a.063.063,0,0,0,.064-.06.063.063,0,1,0-.126,0A.063.063,0,0,0,439.539,334.562Z" transform="translate(324.392 117.899)"/><path class="c" d="M265.4,343.729a.063.063,0,0,0,0-.126.063.063,0,1,0,0,.126Z" transform="translate(0.037 132.636)"/><path class="c" d="M313.03,348.557a3.087,3.087,0,1,0-3.086-3.086A3.088,3.088,0,0,0,313.03,348.557Z" transform="translate(83.358 130.803)"/><path class="c" d="M322.459,349.261a3.528,3.528,0,1,0-3.529-3.527A3.53,3.53,0,0,0,322.459,349.261Z" transform="translate(100.184 130.536)"/><path class="c" d="M331.66,349.36a3.59,3.59,0,1,0-3.589-3.589A3.59,3.59,0,0,0,331.66,349.36Z" transform="translate(117.271 130.498)"/><path class="c" d="M340.827,349.36a3.59,3.59,0,1,0-3.591-3.589A3.588,3.588,0,0,0,340.827,349.36Z" transform="translate(134.397 130.498)"/><path class="c" d="M349.8,348.858a3.275,3.275,0,1,0-3.274-3.274A3.273,3.273,0,0,0,349.8,348.858Z" transform="translate(151.714 130.689)"/><path class="c" d="M358.593,347.85a2.644,2.644,0,1,0-2.645-2.642A2.642,2.642,0,0,0,358.593,347.85Z" transform="translate(169.205 131.071)"/><path class="c" d="M367.344,346.745a1.952,1.952,0,1,0-1.95-1.95A1.95,1.95,0,0,0,367.344,346.745Z" transform="translate(186.712 131.492)"/><path class="c" d="M376.1,345.641a1.26,1.26,0,1,0-1.262-1.259A1.261,1.261,0,0,0,376.1,345.641Z" transform="translate(204.194 131.911)"/><path class="c" d="M385,344.936a.819.819,0,1,0-.815-.818A.819.819,0,0,0,385,344.936Z" transform="translate(221.52 132.178)"/><path class="c" d="M393.976,344.432a.5.5,0,1,0-.5-.5A.5.5,0,0,0,393.976,344.432Z" transform="translate(238.765 132.37)"/><path class="c" d="M403.029,344.133a.316.316,0,0,0,0-.632.316.316,0,0,0,0,.632Z" transform="translate(255.934 132.483)"/><path class="c" d="M412.121,343.931a.19.19,0,0,0,0-.379.19.19,0,1,0,0,.379Z" transform="translate(283.666 132.56)"/><path class="c" d="M421.246,343.831a.128.128,0,0,0,.126-.126.127.127,0,0,0-.126-.126.125.125,0,0,0-.124.126A.126.126,0,0,0,421.246,343.831Z" transform="translate(297.256 132.599)"/><path class="c" d="M430.374,343.729a.063.063,0,1,0,0-.126.063.063,0,0,0,0,.126Z" transform="translate(310.842 132.636)"/><path class="c" d="M265.438,353a.128.128,0,0,0,0-.255.128.128,0,0,0,0,.255Z" transform="translate(0 147.334)"/><path class="c" d="M313.293,358.426a3.528,3.528,0,1,0-3.527-3.529A3.527,3.527,0,0,0,313.293,358.426Z" transform="translate(83.061 145.289)"/><path class="c" d="M322.722,359.129a3.968,3.968,0,1,0-3.97-3.97A3.971,3.971,0,0,0,322.722,359.129Z" transform="translate(99.895 145.026)"/><path class="c" d="M331.96,359.327a4.092,4.092,0,1,0-4.092-4.094A4.092,4.092,0,0,0,331.96,359.327Z" transform="translate(116.95 144.951)"/><path class="c" d="M341.09,359.229a4.031,4.031,0,1,0-4.032-4.032A4.031,4.031,0,0,0,341.09,359.229Z" transform="translate(134.122 144.987)"/><path class="c" d="M350.068,358.725a3.715,3.715,0,1,0-3.718-3.718A3.717,3.717,0,0,0,350.068,358.725Z" transform="translate(151.446 145.178)"/><path class="c" d="M358.856,357.72a3.086,3.086,0,1,0-3.086-3.088A3.086,3.086,0,0,0,358.856,357.72Z" transform="translate(168.945 145.556)"/><path class="c" d="M367.494,356.316a2.206,2.206,0,1,0-2.2-2.208A2.208,2.208,0,0,0,367.494,356.316Z" transform="translate(186.567 146.085)"/><path class="c" d="M376.1,354.806a1.26,1.26,0,1,0-1.262-1.261A1.261,1.261,0,0,0,376.1,354.806Z" transform="translate(204.194 146.653)"/><path class="c" d="M384.846,353.7a.568.568,0,1,0,0-1.135.568.568,0,0,0,0,1.135Z" transform="translate(221.657 147.071)"/><path class="c" d="M393.827,353.2a.254.254,0,0,0,0-.508.254.254,0,0,0,0,.508Z" transform="translate(238.896 147.258)"/><path class="c" d="M402.916,353a.128.128,0,1,0-.126-.129A.129.129,0,0,0,402.916,353Z" transform="translate(256.03 147.334)"/><path class="c" d="M412.044,352.893a.063.063,0,0,0,.062-.064.062.062,0,0,0-.062-.059.061.061,0,0,0-.062.059A.062.062,0,0,0,412.044,352.893Z" transform="translate(283.743 147.375)"/><path class="c" d="M421.211,352.893a.064.064,0,0,0,.064-.064.065.065,0,0,0-.129,0A.064.064,0,0,0,421.211,352.893Z" transform="translate(297.291 147.375)"/><path class="c" d="M265.438,362.161a.126.126,0,0,0,0-.253.126.126,0,0,0,0,.253Z" transform="translate(0 162.073)"/><path class="c" d="M274.867,362.864a.566.566,0,1,0-.568-.568A.567.567,0,0,0,274.867,362.864Z" transform="translate(13.287 161.811)"/><path class="c" d="M313.517,368.193a3.9,3.9,0,1,0-3.9-3.9A3.905,3.905,0,0,0,313.517,368.193Z" transform="translate(82.808 159.818)"/><path class="c" d="M323.021,369.1a4.474,4.474,0,1,0-4.471-4.474A4.475,4.475,0,0,0,323.021,369.1Z" transform="translate(99.567 159.48)"/><path class="c" d="M332.3,369.4a4.662,4.662,0,1,0-4.659-4.662A4.661,4.661,0,0,0,332.3,369.4Z" transform="translate(116.587 159.367)"/><path class="c" d="M341.466,369.4a4.662,4.662,0,1,0-4.662-4.662A4.661,4.661,0,0,0,341.466,369.4Z" transform="translate(133.731 159.367)"/><path class="c" d="M350.479,369a4.408,4.408,0,1,0-4.407-4.407A4.407,4.407,0,0,0,350.479,369Z" transform="translate(151.029 159.518)"/><path class="c" d="M359.231,367.894a3.718,3.718,0,1,0-3.715-3.718A3.719,3.719,0,0,0,359.231,367.894Z" transform="translate(168.575 159.931)"/><path class="c" d="M367.87,366.486a2.835,2.835,0,1,0-2.833-2.835A2.837,2.837,0,0,0,367.87,366.486Z" transform="translate(186.208 160.457)"/><path class="c" d="M376.548,365.178a2.016,2.016,0,1,0-2.015-2.017A2.017,2.017,0,0,0,376.548,365.178Z" transform="translate(203.776 160.946)"/><path class="c" d="M384.658,362.363a.253.253,0,1,0,0-.506.253.253,0,0,0,0,.506Z" transform="translate(221.827 161.998)"/><path class="c" d="M265.438,371.328a.128.128,0,0,0,0-.255.128.128,0,0,0,0,.255Z" transform="translate(0 176.81)"/><path class="c" d="M274.867,372.029a.566.566,0,1,0-.568-.568A.566.566,0,0,0,274.867,372.029Z" transform="translate(13.287 176.551)"/><path class="c" d="M284.484,373.235a1.322,1.322,0,1,0-1.323-1.323A1.323,1.323,0,0,0,284.484,373.235Z" transform="translate(26.387 176.103)"/><path class="c" d="M313.668,377.764a4.159,4.159,0,1,0-4.156-4.159A4.158,4.158,0,0,0,313.668,377.764Z" transform="translate(82.638 174.424)"/><circle class="c" cx="4.913" cy="4.913" r="4.913" transform="translate(417.648 543.119)"/><path class="c" d="M332.676,379.572a5.291,5.291,0,1,0-5.291-5.291A5.289,5.289,0,0,0,332.676,379.572Z" transform="translate(116.183 173.754)"/><path class="c" d="M341.841,379.572a5.291,5.291,0,1,0-5.291-5.291A5.29,5.29,0,0,0,341.841,379.572Z" transform="translate(133.339 173.754)"/><circle class="c" cx="5.165" cy="5.165" r="5.165" transform="translate(496.336 542.869)"/><path class="c" d="M359.756,378.466a4.6,4.6,0,1,0-4.6-4.6A4.6,4.6,0,0,0,359.756,378.466Z" transform="translate(168.058 174.165)"/><path class="c" d="M368.472,377.26a3.843,3.843,0,1,0-3.842-3.844A3.843,3.843,0,0,0,368.472,377.26Z" transform="translate(185.631 174.612)"/><path class="c" d="M377.074,375.75a2.9,2.9,0,1,0-2.9-2.9A2.9,2.9,0,0,0,377.074,375.75Z" transform="translate(203.286 175.17)"/><path class="c" d="M385.409,373.538a1.512,1.512,0,1,0-1.507-1.512A1.514,1.514,0,0,0,385.409,373.538Z" transform="translate(221.148 175.99)"/><path class="c" d="M394.013,372.029a.566.566,0,1,0-.565-.568A.567.567,0,0,0,394.013,372.029Z" transform="translate(238.732 176.551)"/><path class="c" d="M403.029,371.627a.315.315,0,1,0,0-.629.315.315,0,0,0,0,.629Z" transform="translate(255.934 176.699)"/><path class="c" d="M412.156,371.529a.254.254,0,0,0,.253-.255.252.252,0,1,0-.253.255Z" transform="translate(283.631 176.737)"/><path class="c" d="M421.321,371.529a.253.253,0,0,0,.253-.255.252.252,0,1,0-.253.255Z" transform="translate(297.18 176.737)"/><path class="c" d="M430.411,371.328a.128.128,0,1,0-.124-.129A.128.128,0,0,0,430.411,371.328Z" transform="translate(310.806 176.81)"/><path class="c" d="M439.539,371.223a.062.062,0,1,0-.062-.062A.064.064,0,0,0,439.539,371.223Z" transform="translate(324.392 176.848)"/><path class="c" d="M265.438,380.493a.128.128,0,0,0,0-.255.128.128,0,0,0,0,.255Z" transform="translate(0 191.547)"/><path class="c" d="M303.866,385.215a3.086,3.086,0,1,0-3.088-3.086A3.084,3.084,0,0,0,303.866,385.215Z" transform="translate(66.239 189.81)"/><path class="c" d="M313.668,386.927a4.158,4.158,0,1,0-4.156-4.159A4.158,4.158,0,0,0,313.668,386.927Z" transform="translate(82.638 189.182)"/><path class="c" d="M323.435,388.538a5.166,5.166,0,1,0-5.165-5.167A5.167,5.167,0,0,0,323.435,388.538Z" transform="translate(99.111 188.59)"/><path class="c" d="M333.051,389.744a5.922,5.922,0,1,0-5.921-5.923A5.925,5.925,0,0,0,333.051,389.744Z" transform="translate(115.78 188.147)"/><path class="c" d="M342.291,389.945a6.047,6.047,0,1,0-6.045-6.05A6.048,6.048,0,0,0,342.291,389.945Z" transform="translate(132.87 188.074)"/><path class="c" d="M351.494,390.045a6.111,6.111,0,1,0-6.109-6.112A6.113,6.113,0,0,0,351.494,390.045Z" transform="translate(149.999 188.036)"/><path class="c" d="M360.472,389.543a5.8,5.8,0,1,0-5.795-5.8A5.8,5.8,0,0,0,360.472,389.543Z" transform="translate(167.352 188.221)"/><path class="c" d="M369.261,388.538a5.166,5.166,0,1,0-5.165-5.167A5.167,5.167,0,0,0,369.261,388.538Z" transform="translate(184.875 188.59)"/><path class="c" d="M377.864,387.026a4.22,4.22,0,1,0-4.221-4.221A4.219,4.219,0,0,0,377.864,387.026Z" transform="translate(202.552 189.146)"/><path class="c" d="M386.349,385.215a3.086,3.086,0,1,0-3.083-3.086A3.083,3.083,0,0,0,386.349,385.215Z" transform="translate(220.299 189.81)"/><path class="c" d="M394.878,383.507a2.015,2.015,0,1,0-2.015-2.017A2.019,2.019,0,0,0,394.878,383.507Z" transform="translate(237.975 190.44)"/><path class="c" d="M403.7,382.6a1.449,1.449,0,1,0-1.447-1.45A1.448,1.448,0,0,0,403.7,382.6Z" transform="translate(255.361 190.772)"/><path class="c" d="M412.646,382a1.072,1.072,0,1,0-1.071-1.073A1.071,1.071,0,0,0,412.646,382Z" transform="translate(283.141 190.993)"/><path class="c" d="M421.661,381.6a.819.819,0,1,0-.82-.82A.818.818,0,0,0,421.661,381.6Z" transform="translate(296.84 191.141)"/><path class="c" d="M430.637,381.095a.5.5,0,1,0-.5-.506A.5.5,0,0,0,430.637,381.095Z" transform="translate(310.579 191.326)"/><path class="c" d="M439.614,380.59a.188.188,0,1,0-.188-.188A.187.187,0,0,0,439.614,380.59Z" transform="translate(324.317 191.511)"/><path class="c" d="M265.4,389.556a.064.064,0,0,0,.062-.067.059.059,0,0,0-.062-.06.06.06,0,0,0-.064.06A.064.064,0,0,0,265.4,389.556Z" transform="translate(0.037 206.324)"/><path class="c" d="M303.866,394.383a3.087,3.087,0,1,0-3.088-3.088A3.087,3.087,0,0,0,303.866,394.383Z" transform="translate(66.239 204.562)"/><path class="c" d="M313.668,396.092a4.158,4.158,0,1,0-4.156-4.159A4.158,4.158,0,0,0,313.668,396.092Z" transform="translate(82.638 203.939)"/><path class="c" d="M323.472,397.8a5.228,5.228,0,1,0-5.227-5.232A5.229,5.229,0,0,0,323.472,397.8Z" transform="translate(99.07 203.317)"/><path class="c" d="M333.2,399.309a6.173,6.173,0,1,0-6.171-6.174A6.171,6.171,0,0,0,333.2,399.309Z" transform="translate(115.62 202.767)"/><path class="c" d="M342.742,400.314a6.8,6.8,0,1,0-6.8-6.8A6.8,6.8,0,0,0,342.742,400.314Z" transform="translate(132.4 202.4)"/><path class="c" d="M352.021,400.617a6.992,6.992,0,1,0-6.992-6.994A6.992,6.992,0,0,0,352.021,400.617Z" transform="translate(149.465 202.291)"/><path class="c" d="M361.184,400.617a6.992,6.992,0,1,0-6.989-6.994A6.99,6.99,0,0,0,361.184,400.617Z" transform="translate(166.65 202.291)"/><path class="c" d="M370.2,400.215a6.74,6.74,0,1,0-6.741-6.741A6.74,6.74,0,0,0,370.2,400.215Z" transform="translate(183.975 202.436)"/><path class="c" d="M378.916,399.008a5.984,5.984,0,1,0-5.985-5.985A5.984,5.984,0,0,0,378.916,399.008Z" transform="translate(201.574 202.876)"/><path class="c" d="M387.44,397.3a4.913,4.913,0,1,0-4.912-4.917A4.916,4.916,0,0,0,387.44,397.3Z" transform="translate(219.316 203.501)"/><path class="c" d="M395.968,395.59a3.843,3.843,0,1,0-3.841-3.844A3.843,3.843,0,0,0,395.968,395.59Z" transform="translate(237.023 204.122)"/><path class="c" d="M404.529,393.982a2.835,2.835,0,1,0-2.83-2.838A2.837,2.837,0,0,0,404.529,393.982Z" transform="translate(254.663 204.709)"/><path class="c" d="M413.249,392.776a2.081,2.081,0,1,0-2.082-2.082A2.079,2.079,0,0,0,413.249,392.776Z" transform="translate(282.538 205.147)"/><path class="c" d="M422.037,391.767a1.449,1.449,0,1,0-1.45-1.45A1.448,1.448,0,0,0,422.037,391.767Z" transform="translate(296.465 205.515)"/><path class="c" d="M430.862,390.864a.882.882,0,1,0-.88-.885A.885.885,0,0,0,430.862,390.864Z" transform="translate(310.355 205.846)"/><path class="c" d="M439.727,390.058a.378.378,0,1,0-.377-.379A.378.378,0,0,0,439.727,390.058Z" transform="translate(324.204 206.139)"/><path class="c" d="M265.4,398.723a.064.064,0,1,0-.064-.064A.063.063,0,0,0,265.4,398.723Z" transform="translate(0.037 221.059)"/><path class="c" d="M274.753,399.224a.378.378,0,1,0-.377-.379A.379.379,0,0,0,274.753,399.224Z" transform="translate(13.4 220.879)"/><path class="c" d="M303.715,403.145a2.834,2.834,0,1,0-2.835-2.835A2.833,2.833,0,0,0,303.715,403.145Z" transform="translate(66.413 219.461)"/><path class="c" d="M313.556,404.957a3.969,3.969,0,1,0-3.968-3.97A3.969,3.969,0,0,0,313.556,404.957Z" transform="translate(82.765 218.806)"/><path class="c" d="M323.4,406.766a5.1,5.1,0,1,0-5.1-5.1A5.106,5.106,0,0,0,323.4,406.766Z" transform="translate(99.152 218.152)"/><path class="c" d="M333.2,408.473a6.171,6.171,0,1,0-6.171-6.171A6.172,6.172,0,0,0,333.2,408.473Z" transform="translate(115.62 217.535)"/><path class="c" d="M342.894,409.885a7.056,7.056,0,1,0-7.056-7.056A7.057,7.057,0,0,0,342.894,409.885Z" transform="translate(132.24 217.025)"/><path class="c" d="M352.547,411.191a7.874,7.874,0,1,0-7.874-7.874A7.874,7.874,0,0,0,352.547,411.191Z" transform="translate(148.93 216.553)"/><path class="c" d="M361.712,411.191a7.874,7.874,0,1,0-7.874-7.874A7.876,7.876,0,0,0,361.712,411.191Z" transform="translate(166.13 216.553)"/><path class="c" d="M370.877,411.191A7.874,7.874,0,1,0,363,403.317,7.873,7.873,0,0,0,370.877,411.191Z" transform="translate(183.329 216.553)"/><path class="c" d="M380.043,411.191a7.874,7.874,0,1,0-7.874-7.874A7.876,7.876,0,0,0,380.043,411.191Z" transform="translate(200.53 216.553)"/><path class="c" d="M388.716,409.885a7.056,7.056,0,1,0-7.051-7.056A7.061,7.061,0,0,0,388.716,409.885Z" transform="translate(218.169 217.025)"/><path class="c" d="M396.945,407.369a5.48,5.48,0,1,0-5.48-5.48A5.477,5.477,0,0,0,396.945,407.369Z" transform="translate(236.17 217.933)"/><path class="c" d="M405.282,405.157a4.094,4.094,0,1,0-4.092-4.094A4.1,4.1,0,0,0,405.282,405.157Z" transform="translate(254.027 218.733)"/><path class="c" d="M413.737,403.246a2.9,2.9,0,1,0-2.9-2.9A2.9,2.9,0,0,0,413.737,403.246Z" transform="translate(282.05 219.423)"/><path class="c" d="M422.3,401.637a1.89,1.89,0,1,0-1.889-1.888A1.89,1.89,0,0,0,422.3,401.637Z" transform="translate(296.203 220.004)"/><circle class="c" cx="1.071" cy="1.071" r="1.071" transform="translate(740.147 618.666)"/><path class="c" d="M439.764,399.324a.441.441,0,1,0-.439-.441A.441.441,0,0,0,439.764,399.324Z" transform="translate(324.167 220.841)"/><path class="c" d="M274.64,408.086a.188.188,0,1,0-.188-.188A.188.188,0,0,0,274.64,408.086Z" transform="translate(13.513 235.725)"/><path class="c" d="M303.452,411.607a2.394,2.394,0,1,0-2.394-2.394A2.4,2.4,0,0,0,303.452,411.607Z" transform="translate(66.717 234.462)"/><path class="c" d="M313.254,413.318a3.465,3.465,0,1,0-3.462-3.467A3.467,3.467,0,0,0,313.254,413.318Z" transform="translate(83.105 233.851)"/><path class="c" d="M323.172,415.327a4.724,4.724,0,1,0-4.724-4.724A4.723,4.723,0,0,0,323.172,415.327Z" transform="translate(99.401 233.129)"/><path class="c" d="M333.051,417.238a5.921,5.921,0,1,0-5.921-5.921A5.923,5.923,0,0,0,333.051,417.238Z" transform="translate(115.78 232.444)"/><path class="c" d="M342.819,418.848a6.93,6.93,0,1,0-6.93-6.93A6.93,6.93,0,0,0,342.819,418.848Z" transform="translate(132.319 231.868)"/><path class="c" d="M352.547,420.356a7.874,7.874,0,1,0-7.874-7.874A7.873,7.873,0,0,0,352.547,420.356Z" transform="translate(148.93 231.328)"/><path class="c" d="M361.712,420.356a7.874,7.874,0,1,0-7.874-7.874A7.875,7.875,0,0,0,361.712,420.356Z" transform="translate(166.13 231.328)"/><path class="c" d="M370.877,420.356A7.874,7.874,0,1,0,363,412.482,7.871,7.871,0,0,0,370.877,420.356Z" transform="translate(183.329 231.328)"/><path class="c" d="M380.043,420.356a7.874,7.874,0,1,0-7.874-7.874A7.874,7.874,0,0,0,380.043,420.356Z" transform="translate(200.53 231.328)"/><path class="c" d="M389.205,420.356a7.874,7.874,0,1,0-7.871-7.874A7.873,7.873,0,0,0,389.205,420.356Z" transform="translate(217.729 231.328)"/><path class="c" d="M397.357,417.637a6.171,6.171,0,1,0-6.171-6.171A6.171,6.171,0,0,0,397.357,417.637Z" transform="translate(235.811 232.301)"/><path class="c" d="M405.545,415.025a4.534,4.534,0,1,0-4.533-4.535A4.535,4.535,0,0,0,405.545,415.025Z" transform="translate(253.804 233.238)"/><path class="c" d="M413.849,412.714a3.087,3.087,0,1,0-3.088-3.088A3.084,3.084,0,0,0,413.849,412.714Z" transform="translate(281.938 234.066)"/><path class="c" d="M422.337,410.9a1.953,1.953,0,1,0-1.953-1.953A1.952,1.952,0,0,0,422.337,410.9Z" transform="translate(296.165 234.714)"/><path class="c" d="M430.974,409.494a1.071,1.071,0,1,0-1.068-1.071A1.071,1.071,0,0,0,430.974,409.494Z" transform="translate(310.242 235.219)"/><path class="c" d="M439.764,408.492a.442.442,0,1,0-.439-.444A.443.443,0,0,0,439.764,408.492Z" transform="translate(324.167 235.58)"/><circle class="c" cx="0.063" cy="0.063" r="0.063" transform="translate(288.09 667.459)"/><path class="c" d="M303.114,419.867a1.827,1.827,0,1,0-1.827-1.829A1.825,1.825,0,0,0,303.114,419.867Z" transform="translate(67.107 249.533)"/><path class="c" d="M312.8,421.275a2.709,2.709,0,1,0-2.709-2.709A2.706,2.706,0,0,0,312.8,421.275Z" transform="translate(83.611 249.031)"/><path class="c" d="M322.684,423.185a3.9,3.9,0,1,0-3.906-3.906A3.906,3.906,0,0,0,322.684,423.185Z" transform="translate(99.937 248.354)"/><circle class="c" cx="5.039" cy="5.039" r="5.039" transform="translate(443.83 662.627)"/><path class="c" d="M342.406,426.908a6.237,6.237,0,1,0-6.238-6.238A6.236,6.236,0,0,0,342.406,426.908Z" transform="translate(132.75 247.031)"/><path class="c" d="M352.208,428.613a7.305,7.305,0,1,0-7.306-7.306A7.305,7.305,0,0,0,352.208,428.613Z" transform="translate(149.274 246.426)"/><path class="c" d="M361.712,429.519a7.873,7.873,0,1,0-7.874-7.874A7.875,7.875,0,0,0,361.712,429.519Z" transform="translate(166.13 246.105)"/><path class="c" d="M370.877,429.519A7.873,7.873,0,1,0,363,421.646,7.871,7.871,0,0,0,370.877,429.519Z" transform="translate(183.329 246.105)"/><path class="c" d="M380.043,429.519a7.873,7.873,0,1,0-7.874-7.874A7.874,7.874,0,0,0,380.043,429.519Z" transform="translate(200.53 246.105)"/><path class="c" d="M389.205,429.519a7.873,7.873,0,1,0-7.871-7.874A7.873,7.873,0,0,0,389.205,429.519Z" transform="translate(217.729 246.105)"/><path class="c" d="M397.357,426.805a6.173,6.173,0,1,0-6.171-6.174A6.173,6.173,0,0,0,397.357,426.805Z" transform="translate(235.811 247.068)"/><path class="c" d="M405.47,423.988a4.408,4.408,0,1,0-4.407-4.409A4.41,4.41,0,0,0,405.47,423.988Z" transform="translate(253.868 248.068)"/><path class="c" d="M413.811,421.78a3.025,3.025,0,1,0-3.024-3.026A3.027,3.027,0,0,0,413.811,421.78Z" transform="translate(281.976 248.853)"/><circle class="c" cx="1.89" cy="1.89" r="1.89" transform="translate(716.612 665.684)"/><path class="c" d="M430.939,418.557a1.006,1.006,0,1,0-1.009-1.006A1.006,1.006,0,0,0,430.939,418.557Z" transform="translate(310.278 249.998)"/><path class="c" d="M439.727,417.554a.378.378,0,1,0-.377-.379A.379.379,0,0,0,439.727,417.554Z" transform="translate(324.204 250.355)"/><path class="c" d="M283.771,426.315a.125.125,0,0,0,0-.25.125.125,0,1,0,0,.25Z" transform="translate(27.099 270.006)"/><path class="c" d="M351.268,435.267a5.731,5.731,0,1,0-5.73-5.735A5.734,5.734,0,0,0,351.268,435.267Z" transform="translate(150.228 266.663)"/><path class="c" d="M360.809,436.273a6.362,6.362,0,1,0-6.36-6.365A6.363,6.363,0,0,0,360.809,436.273Z" transform="translate(167.02 266.286)"/><path class="c" d="M370.086,436.574a6.55,6.55,0,1,0-6.548-6.553A6.554,6.554,0,0,0,370.086,436.574Z" transform="translate(184.086 266.174)"/><path class="c" d="M379.253,436.574a6.55,6.55,0,1,0-6.55-6.553A6.553,6.553,0,0,0,379.253,436.574Z" transform="translate(201.262 266.174)"/><path class="c" d="M388.116,435.768a6.046,6.046,0,1,0-6.045-6.047A6.047,6.047,0,0,0,388.116,435.768Z" transform="translate(218.708 266.474)"/><path class="c" d="M396.606,433.961a4.913,4.913,0,1,0-4.912-4.917A4.916,4.916,0,0,0,396.606,433.961Z" transform="translate(236.465 267.151)"/><path class="c" d="M405.057,432.049a3.716,3.716,0,1,0-3.715-3.718A3.719,3.719,0,0,0,405.057,432.049Z" transform="translate(254.216 267.864)"/><path class="c" d="M413.509,430.14a2.521,2.521,0,1,0-2.518-2.523A2.519,2.519,0,0,0,413.509,430.14Z" transform="translate(282.278 268.578)"/><path class="c" d="M422.111,428.63a1.575,1.575,0,1,0-1.574-1.576A1.573,1.573,0,0,0,422.111,428.63Z" transform="translate(296.391 269.141)"/><path class="c" d="M430.788,427.322a.756.756,0,1,0-.756-.756A.757.757,0,0,0,430.788,427.322Z" transform="translate(310.429 269.629)"/><path class="c" d="M439.651,426.52a.253.253,0,1,0-.25-.255A.253.253,0,0,0,439.651,426.52Z" transform="translate(324.28 269.93)"/><path class="c" d="M293.009,435.683a.252.252,0,0,0,0-.5.252.252,0,1,0,0,.5Z" transform="translate(40.574 283.482)"/><path class="c" d="M377.9,442.121a4.284,4.284,0,1,0-4.283-4.285A4.286,4.286,0,0,0,377.9,442.121Z" transform="translate(202.518 281.076)"/><path class="c" d="M386.914,441.716a4.031,4.031,0,1,0-4.03-4.03A4.027,4.027,0,0,0,386.914,441.716Z" transform="translate(219.789 281.225)"/><path class="c" d="M395.7,440.71a3.4,3.4,0,1,0-3.4-3.4A3.4,3.4,0,0,0,395.7,440.71Z" transform="translate(237.252 281.602)"/><path class="c" d="M404.343,439.3a2.519,2.519,0,1,0-2.518-2.521A2.522,2.522,0,0,0,404.343,439.3Z" transform="translate(254.82 282.129)"/><path class="c" d="M413.06,438.1a1.763,1.763,0,1,0-1.765-1.762A1.76,1.76,0,0,0,413.06,438.1Z" transform="translate(282.728 282.578)"/><path class="c" d="M421.774,436.891a1.009,1.009,0,1,0-1.009-1.009A1.008,1.008,0,0,0,421.774,436.891Z" transform="translate(296.728 283.029)"/><path class="c" d="M430.6,435.985a.441.441,0,1,0-.439-.441A.441.441,0,0,0,430.6,435.985Z" transform="translate(310.618 283.368)"/><path class="c" d="M439.539,435.382a.063.063,0,1,0,0-.126.063.063,0,0,0,0,.126Z" transform="translate(324.392 283.594)"/><path class="c" d="M302.175,444.848a.252.252,0,1,0-.253-.253A.251.251,0,0,0,302.175,444.848Z" transform="translate(68.188 297.031)"/><path class="c" d="M403.741,446.862a1.513,1.513,0,1,0-1.509-1.514A1.514,1.514,0,0,0,403.741,446.862Z" transform="translate(255.33 296.279)"/><path class="c" d="M412.572,445.956a.945.945,0,1,0-.947-.947A.948.948,0,0,0,412.572,445.956Z" transform="translate(283.215 296.617)"/><path class="c" d="M421.474,445.251a.5.5,0,0,0,0-1.009.5.5,0,1,0,0,1.009Z" transform="translate(297.028 296.879)"/><circle class="c" cx="0.126" cy="0.126" r="0.126" transform="translate(741.092 741.501)"/><path class="c" d="M311.264,453.813a.125.125,0,0,0,.126-.124.126.126,0,1,0-.253,0A.125.125,0,0,0,311.264,453.813Z" transform="translate(85.343 310.655)"/><path class="c" d="M320.579,454.219a.38.38,0,1,0-.377-.379A.379.379,0,0,0,320.579,454.219Z" transform="translate(102.248 310.504)"/><path class="c" d="M412.233,454.219a.38.38,0,1,0-.379-.379A.381.381,0,0,0,412.233,454.219Z" transform="translate(283.554 310.504)"/><path class="c" d="M421.246,453.813a.125.125,0,0,0,.126-.124.127.127,0,0,0-.126-.129.125.125,0,0,0-.124.129A.123.123,0,0,0,421.246,453.813Z" transform="translate(297.256 310.655)"/><path class="c" d="M329.593,462.979a.126.126,0,0,0,0-.253.126.126,0,0,0,0,.253Z" transform="translate(119.482 324.206)"/><path class="c" d="M338.874,463.28a.315.315,0,1,0-.317-.317A.317.317,0,0,0,338.874,463.28Z" transform="translate(136.431 324.094)"/><path class="c" d="M348.115,463.48a.44.44,0,1,0-.444-.444A.441.441,0,0,0,348.115,463.48Z" transform="translate(153.426 324.02)"/><path class="c" d="M357.278,463.48a.44.44,0,1,0-.441-.444A.441.441,0,0,0,357.278,463.48Z" transform="translate(170.501 324.02)"/><path class="c" d="M366.48,463.582a.5.5,0,1,0-.5-.506A.5.5,0,0,0,366.48,463.582Z" transform="translate(187.539 323.98)"/><path class="c" d="M375.648,463.582a.5.5,0,1,0-.506-.506A.506.506,0,0,0,375.648,463.582Z" transform="translate(204.614 323.98)"/><path class="c" d="M384.772,463.48a.44.44,0,1,0-.439-.444A.442.442,0,0,0,384.772,463.48Z" transform="translate(221.724 324.02)"/><path class="c" d="M393.864,463.28a.315.315,0,1,0-.315-.317A.317.317,0,0,0,393.864,463.28Z" transform="translate(238.863 324.094)"/><path class="c" d="M402.916,462.979a.126.126,0,1,0-.126-.129A.128.128,0,0,0,402.916,462.979Z" transform="translate(256.03 324.206)"/></g></g></svg>