<svg xmlns="http://www.w3.org/2000/svg" xmlns:xlink="http://www.w3.org/1999/xlink" width="51.801" height="51.801" viewBox="0 0 51.801 51.801">
  <defs>
    <filter id="Path_4800" x="0" y="0" width="51.801" height="51.801" filterUnits="userSpaceOnUse">
      <feOffset dy="2" input="SourceAlpha"/>
      <feGaussianBlur stdDeviation="1.5" result="blur"/>
      <feFlood flood-opacity="0.161"/>
      <feComposite operator="in" in2="blur"/>
      <feComposite in="SourceGraphic"/>
    </filter>
  </defs>
  <g id="Group_2637" data-name="Group 2637" transform="translate(4.5 2.5)">
    <g transform="matrix(1, 0, 0, 1, -4.5, -2.5)" filter="url(#Path_4800)">
      <path id="Path_4800-2" data-name="Path 4800" d="M21.4,0h0A21.4,21.4,0,0,1,42.8,21.4h0A21.4,21.4,0,0,1,21.4,42.8h0A21.4,21.4,0,0,1,0,21.4H0A21.4,21.4,0,0,1,21.4,0Z" transform="translate(4.5 2.5)" fill="#fff"/>
    </g>
    <path id="Path_4795" data-name="Path 4795" d="M387.386,161.9H392.6V148.858h3.635l.388-4.368H392.6V142c0-1.03.207-1.437,1.2-1.437h2.819v-4.533H393.01c-3.876,0-5.624,1.707-5.624,4.975v3.483h-2.71v4.423h2.71Z" transform="translate(-369.246 -127.568)" fill="#007cbd"/>
  </g>
</svg>
