<svg xmlns="http://www.w3.org/2000/svg" xmlns:xlink="http://www.w3.org/1999/xlink" width="51.801" height="51.801" viewBox="0 0 51.801 51.801">
  <defs>
    <filter id="Path_4796" x="0" y="0" width="51.801" height="51.801" filterUnits="userSpaceOnUse">
      <feOffset dy="2" input="SourceAlpha"/>
      <feGaussianBlur stdDeviation="1.5" result="blur"/>
      <feFlood flood-opacity="0.161"/>
      <feComposite operator="in" in2="blur"/>
      <feComposite in="SourceGraphic"/>
    </filter>
  </defs>
  <g id="Group_2639" data-name="Group 2639" transform="translate(4.5 2.5)">
    <g transform="matrix(1, 0, 0, 1, -4.5, -2.5)" filter="url(#Path_4796)">
      <path id="Path_4796-2" data-name="Path 4796" d="M448.09,171.306h0a21.4,21.4,0,0,1-21.4-21.4h0a21.4,21.4,0,0,1,21.4-21.4h0a21.4,21.4,0,0,1,21.4,21.4h0A21.4,21.4,0,0,1,448.09,171.306Z" transform="translate(-422.19 -126.01)" fill="#fff"/>
    </g>
    <g id="Group_2638" data-name="Group 2638" transform="translate(9.667 9.667)">
      <path id="Path_4797" data-name="Path 4797" d="M447.02,139.215c3.133,0,3.5.012,4.742.069a6.5,6.5,0,0,1,2.178.4,3.878,3.878,0,0,1,2.227,2.227,6.5,6.5,0,0,1,.4,2.178c.056,1.238.069,1.609.069,4.742s-.012,3.5-.069,4.741a6.5,6.5,0,0,1-.4,2.179,3.878,3.878,0,0,1-2.227,2.227,6.479,6.479,0,0,1-2.178.4c-1.238.056-1.608.069-4.742.069s-3.5-.012-4.741-.069a6.486,6.486,0,0,1-2.179-.4,3.886,3.886,0,0,1-2.227-2.227,6.481,6.481,0,0,1-.4-2.179c-.056-1.237-.069-1.608-.069-4.741s.012-3.5.069-4.742a6.479,6.479,0,0,1,.4-2.178,3.886,3.886,0,0,1,2.227-2.227,6.509,6.509,0,0,1,2.179-.4c1.237-.056,1.608-.069,4.741-.069m0-2.114c-3.187,0-3.586.015-4.838.071a8.622,8.622,0,0,0-2.848.545,6,6,0,0,0-3.431,3.432,8.59,8.59,0,0,0-.545,2.848c-.057,1.252-.071,1.651-.071,4.838s.013,3.586.071,4.838a8.59,8.59,0,0,0,.545,2.848,6,6,0,0,0,3.431,3.432,8.651,8.651,0,0,0,2.848.545c1.252.056,1.651.07,4.838.07s3.586-.014,4.838-.07a8.651,8.651,0,0,0,2.848-.545,6.007,6.007,0,0,0,3.432-3.432,8.622,8.622,0,0,0,.545-2.848c.057-1.252.071-1.651.071-4.838s-.013-3.586-.071-4.838a8.622,8.622,0,0,0-.545-2.848,6.007,6.007,0,0,0-3.432-3.432,8.621,8.621,0,0,0-2.848-.545c-1.252-.056-1.651-.071-4.838-.071" transform="translate(-435.286 -137.101)" fill="#007cbd"/>
      <path id="Path_4798" data-name="Path 4798" d="M446.387,142.178a6.025,6.025,0,1,0,6.025,6.025,6.025,6.025,0,0,0-6.025-6.025m0,9.937A3.911,3.911,0,1,1,450.3,148.2a3.911,3.911,0,0,1-3.911,3.911" transform="translate(-434.654 -136.469)" fill="#007cbd"/>
      <path id="Path_4799" data-name="Path 4799" d="M452.854,142.122a1.408,1.408,0,1,1-1.408-1.408,1.408,1.408,0,0,1,1.408,1.408" transform="translate(-433.449 -136.651)" fill="#007cbd"/>
    </g>
  </g>
</svg>
